<svg width="35" height="35" viewBox="0 0 41 41" fill="none" xmlns="http://www.w3.org/2000/svg">
<rect x="0.5" y="0.5" width="40" height="40" rx="7.5" fill="white" stroke="#E0E0E0"/>
<g clip-path="url(#clip0)">
<path d="M14.1724 21.3888L24.3088 31.525C24.5432 31.7596 24.8562 31.8889 25.1899 31.8889C25.5236 31.8889 25.8365 31.7596 26.071 31.525L26.8175 30.7787C27.3032 30.2924 27.3032 29.5021 26.8175 29.0165L18.3057 20.5047L26.8269 11.9835C27.0614 11.7489 27.1908 11.4361 27.1908 11.1026C27.1908 10.7687 27.0614 10.4559 26.8269 10.2211L26.0804 9.47499C25.8458 9.24037 25.533 9.11111 25.1993 9.11111C24.8656 9.11111 24.5527 9.24037 24.3182 9.47499L14.1724 19.6205C13.9374 19.8558 13.8083 20.1701 13.8091 20.5042C13.8083 20.8395 13.9374 21.1536 14.1724 21.3888Z" fill="#828282"/>
</g>
<defs>
<clipPath id="clip0">
<rect width="22.7778" height="22.7778" fill="white" transform="translate(31.8888 31.8889) rotate(-180)"/>
</clipPath>
</defs>
</svg>
