<svg width="102" height="70" viewBox="0 0 102 70" fill="none" xmlns="http://www.w3.org/2000/svg">
<path d="M87.4292 45.7974C88.3669 46.4726 89.5017 46.8145 90.6543 46.7692C91.8069 46.7239 92.9117 46.2938 93.794 45.547C94.9355 44.5475 95.6859 43.1724 95.9111 41.6676C96.0663 40.727 96.0038 39.7631 95.7285 38.8507C95.4531 37.9383 94.9723 37.1019 94.3233 36.4065C93.6821 35.7617 92.8739 35.3103 91.9905 35.1035C91.1071 34.8967 90.1836 34.9429 89.325 35.2367C85.239 36.7058 83.9342 43.1339 87.4292 45.7974Z" fill="#FFD026"/>
<path d="M86.5497 34.9921L86.0768 35.1852L89.219 42.9374L89.6919 42.7443L86.5497 34.9921Z" fill="black"/>
<path d="M99.2178 37.0548L90.0393 41.0067L90.2403 41.4784L99.4188 37.5265L99.2178 37.0548Z" fill="black"/>
<path d="M92.3692 35.2477L78.3324 69.2848L78.8041 69.4813L92.8409 35.4443L92.3692 35.2477Z" fill="black"/>
<path d="M92.3061 51.5929C92.2971 52.5218 92.5963 53.4274 93.1563 54.1665C93.7164 54.9056 94.5054 55.4361 95.3989 55.6742C96.5764 55.9667 97.8191 55.8284 98.9045 55.2843C99.5898 54.9538 100.19 54.4691 100.659 53.8677C101.127 53.2663 101.452 52.5644 101.607 51.8166C101.733 51.0969 101.656 50.3561 101.384 49.6784C101.112 49.0006 100.657 48.4128 100.07 47.9819C97.233 45.9652 92.4372 48.0628 92.3061 51.5929Z" fill="#FFD026"/>
<path d="M95.836 51.7611L95.6318 52.2311L101.796 54.9365L102 54.4665L95.836 51.7611Z" fill="black"/>
<path d="M94.1377 46.4711L93.6272 46.4754L93.6955 52.7951L94.206 52.7909L94.1377 46.4711Z" fill="black"/>
<path d="M101.243 49.4515L83.7903 56.5046L83.9807 56.9807L101.433 49.9275L101.243 49.4515Z" fill="black"/>
<path d="M81.1304 19.8402H50.5181V41.6965H81.1304V19.8402Z" fill="#A8DADC"/>
<path d="M64.8714 61.6669C64.4925 61.6668 64.1151 61.6174 63.7487 61.52C62.1188 61.0898 60.7442 59.6408 60.161 57.7387C59.595 55.8915 59.7992 53.9541 60.0405 52.4723C60.7339 48.1861 62.3946 44.1165 64.8953 40.5754C67.396 37.0343 70.6703 34.1158 74.467 32.0436C73.989 31.3077 73.3338 30.705 72.5623 30.2913C70.5644 29.2594 67.9474 29.6444 64.7799 31.4357C60.2413 34.0627 56.4062 37.7592 53.6049 42.207C50.8036 46.6548 49.1201 51.7204 48.6994 56.9674L48.1902 56.9313C48.6168 51.5997 50.3271 46.4523 53.1735 41.9329C56.0199 37.4136 59.9171 33.6577 64.5292 30.9891C67.8543 29.1079 70.6359 28.7196 72.7955 29.8357C73.6643 30.2926 74.4013 30.9668 74.9355 31.7933C77.8246 30.2781 80.9513 29.2732 84.179 28.8222L84.2489 29.3304C81.0916 29.7715 78.0326 30.7525 75.2046 32.2308C75.9397 33.5279 76.4869 35.3915 76.5547 38.0727C76.7048 44.8209 74.8367 51.459 71.1921 57.1283C70.3563 58.4653 69.2771 59.6318 68.0111 60.5669C67.1017 61.2487 66.0055 61.6327 64.8714 61.6669ZM74.7378 32.4792C71.0027 34.5127 67.7812 37.3797 65.3207 40.86C62.8601 44.3402 61.2261 48.3411 60.5441 52.5552C60.3121 53.9816 60.1145 55.8423 60.649 57.5876C61.1799 59.3215 62.4182 60.6383 63.8786 61.0237C67.1964 61.8993 69.9886 58.0494 70.7658 56.8484C74.354 51.2659 76.193 44.7295 76.0446 38.085C75.9785 35.4658 75.4276 33.6864 74.7378 32.4792Z" fill="white"/>
<path d="M81.1304 19.946H50.5181V24.1899H81.1304V19.946Z" fill="#16A75C"/>
<path d="M94.4183 69.3821C94.4183 69.3821 90.1281 45.9242 75.0408 45.9242C59.9535 45.9242 55.5731 69.3821 55.5731 69.3821" fill="#16A75C"/>
<path d="M23.6707 31.1927C22.6521 30.9005 22.0473 32.6856 21.7296 34.1268L20.0066 31.7534L14.2715 35.5963L16.0468 41.6119L23.7397 36.8959C23.7397 36.8959 25.6085 31.7493 23.6707 31.1927Z" fill="#E99C72"/>
<path d="M67.9194 42.8018V55.2113L63.9351 59.633L55.1501 69.3822H37.053L37.7828 52.409L67.9194 42.8018Z" fill="#FFD026"/>
<path d="M58.0441 36.3647L56.819 41.2416L44.5292 40.4679L45.9994 36.6853L47.0367 27.824L55.5366 22.2485L58.0441 36.3647Z" fill="#F0BC9F"/>
<path d="M51.9798 27.7934C51.4781 29.0944 50.7218 30.281 49.7558 31.2831C48.7898 32.2852 47.6337 33.0824 46.3558 33.6276L47.0044 28.0919L49.5393 26.4184C50.3577 26.8781 51.1438 27.3313 51.9798 27.7934Z" fill="black"/>
<path d="M56.6529 17.8357L56.4548 18.359L52.7593 28.1871C52.7593 28.1871 47.7675 33.3591 42.6168 28.8172C39.7581 26.2907 38.9384 19.5905 40.3572 14.3388C40.4033 14.171 40.4499 14.0068 40.4993 13.843L40.5214 13.7695C40.5308 13.7371 40.541 13.703 40.552 13.6698C40.5573 13.6542 40.5618 13.6369 40.5675 13.6205C40.6284 13.4313 40.6925 13.2429 40.7615 13.0582C40.8068 12.9243 40.855 12.7959 40.9081 12.6678C40.9726 12.4999 41.0429 12.3341 41.1123 12.1715C41.867 10.4426 42.9252 9.01906 44.2978 8.17512C44.609 7.98135 44.9385 7.8191 45.2816 7.69076C45.4406 7.62993 45.6027 7.57746 45.7672 7.53355C45.8991 7.4966 46.0351 7.46541 46.1711 7.43873C46.5386 7.36837 46.9119 7.33332 47.286 7.33405C47.3215 7.33405 47.3575 7.33405 47.3942 7.33405C50.6916 7.35745 52.8128 8.7034 54.1788 10.418C55.9051 12.5812 56.425 15.3388 56.5814 16.8079C56.5867 16.8612 56.5929 16.9113 56.5974 16.9614L56.6039 17.0336L56.6141 17.1773C56.6239 17.3127 56.6317 17.431 56.6374 17.5278C56.6464 17.6616 56.6484 17.7556 56.65 17.8012C56.6529 17.8246 56.6529 17.8357 56.6529 17.8357Z" fill="#F0BC9F"/>
<path d="M78.075 61.3764L47.4075 50.6477C47.4075 50.6477 43.7434 63.7058 37.1099 68.0179C36.3611 68.5153 35.5396 68.892 34.675 69.1344C34.074 69.2985 33.454 69.382 32.8311 69.3827C26.2246 69.3827 19.3754 56.1428 15.949 48.4369C14.5433 45.2733 13.713 43.0424 13.713 43.0424L24.9438 36.1567L27.3991 40.0151L31.8743 47.0458C31.8743 47.0458 35.4591 40.4002 37.6089 38.4787C39.7587 36.5573 45.8932 36.717 45.8932 36.717C47.7248 43.6027 58.0809 36.3968 58.0809 36.3968C58.0809 36.3968 65.7382 35.8365 68.1968 36.797C71.0657 37.9176 80.8235 54.1663 78.075 61.3764Z" fill="#FFD026"/>
<path d="M63.9348 59.6332L55.1499 69.3825H51.8582L48.2043 56.0522L60.4713 51.4085L62.1457 46.3645L63.9348 59.6332Z" fill="#A39B13"/>
<path d="M46.1949 61.1888C44.398 61.7072 43.2222 61.2963 43.0911 60.3268C42.9825 59.5301 45.7547 58.8983 48.185 58.7202C49.3527 58.6164 50.5133 58.4435 51.6608 58.2026" fill="#F0BC9F"/>
<path d="M51.6595 58.2013L54.878 67.121C54.878 67.121 44.7499 69.1492 43.8412 68.2022C43.765 68.1459 43.7013 68.0743 43.6541 67.9919C43.607 67.9095 43.5775 67.8181 43.5675 67.7235C43.5575 67.629 43.5672 67.5334 43.5961 67.4429C43.6249 67.3524 43.6722 67.2689 43.735 67.1978C43.735 67.1978 42.7345 67.5261 42.293 67.0787C42.1695 66.9454 42.0924 66.7754 42.0733 66.5943C42.0541 66.4132 42.094 66.2307 42.1868 66.0743C42.1868 66.0743 41.2818 66.2319 41.2067 65.3855C41.125 64.4607 43.6211 62.7232 46.194 61.1888" fill="#F0BC9F"/>
<path d="M42.3593 66.264L42.015 65.8852C43.1401 64.9149 44.4013 64.1166 45.7579 63.5159L45.965 63.9846C44.6602 64.566 43.4458 65.3337 42.3593 66.264Z" fill="black"/>
<path d="M43.8703 67.4141L43.5967 66.981C44.606 66.3459 45.6598 65.7853 46.7499 65.3034L46.9488 65.7763C45.8854 66.2484 44.8567 66.7957 43.8703 67.4141Z" fill="black"/>
<path d="M47.7753 0.0839242C48.3142 -0.0359135 48.8735 -0.027305 49.4085 0.109065C49.9435 0.245436 50.4393 0.50578 50.8563 0.869264C51.2732 1.23275 51.5997 1.68928 51.8097 2.20232C52.0196 2.71537 52.1071 3.27069 52.0653 3.82384C52.0234 4.37699 51.8534 4.91261 51.5686 5.38785C51.2839 5.86308 50.8925 6.26474 50.4256 6.56067C49.9588 6.8566 49.4295 7.03859 48.8802 7.09208C48.3308 7.14557 47.7766 7.06906 47.2619 6.86869C44.0675 5.62453 44.4305 0.828118 47.7753 0.0839242Z" fill="black"/>
<path d="M78.0753 61.3763C76.1836 66.5154 66.8077 68.3564 60.3355 69.0152C56.7266 69.3847 54.0197 69.3847 54.0197 69.3847L50.5149 56.735L55.2147 55.02L62.1451 52.4915V46.3261L78.0753 61.3763Z" fill="#FFD026"/>
<path d="M37.7702 52.4089L37.1107 68.0177C36.3619 68.5153 35.5402 68.8919 34.6754 69.1338L37.7702 52.4089Z" fill="#A39B13"/>
<path d="M31.6228 30.0217C35.5854 27.3868 36.6725 22.0222 34.0511 18.0394C31.4296 14.0567 26.0922 12.9639 22.1297 15.5988C18.1671 18.2336 17.0799 23.5982 19.7014 27.581C22.3229 31.5638 27.6603 32.6565 31.6228 30.0217Z" fill="#16A75C"/>
<path d="M13.8905 39.4481C13.6799 39.2821 13.505 39.0751 13.3762 38.8393C13.2475 38.6036 13.1675 38.3441 13.1413 38.0764C13.115 37.8088 13.143 37.5386 13.2234 37.2821C13.3039 37.0257 13.4352 36.7882 13.6095 36.5842L23.9419 24.48L25.9483 26.0604L16.7231 39.0384C16.5676 39.257 16.3696 39.4417 16.1411 39.5814C15.9127 39.721 15.6585 39.8128 15.3938 39.851C15.1291 39.8893 14.8595 39.8733 14.6011 39.8041C14.3428 39.7348 14.101 39.6137 13.8905 39.4481Z" fill="#16A75C"/>
<path d="M31.9545 26.8102C31.2154 27.7567 30.2288 28.4778 29.1051 28.8928C27.9814 29.3078 26.765 29.4003 25.592 29.1599C24.419 28.9196 23.3357 28.3558 22.4633 27.5319C21.591 26.7079 20.964 25.6562 20.6525 24.4944C20.341 23.3326 20.3573 22.1066 20.6996 20.9536C21.042 19.8006 21.6968 18.7661 22.5908 17.9659C23.4848 17.1657 24.5827 16.6314 25.7617 16.4227C26.9407 16.214 28.1542 16.3392 29.2664 16.7843C29.7883 16.9947 30.2809 17.2723 30.7317 17.6102C30.7726 17.6418 30.8134 17.6738 30.8563 17.7062C31.5238 18.231 32.0818 18.883 32.4983 19.6248C32.9149 20.3666 33.1818 21.1837 33.2838 22.0293C33.3858 22.8749 33.3209 23.7324 33.0928 24.5528C32.8647 25.3731 32.4779 26.1402 31.9545 26.8102Z" fill="#A8DADC"/>
<g opacity="0.5">
<path opacity="0.5" d="M30.7317 17.6104L27.6161 29.2507C26.3804 29.3939 25.1298 29.1753 24.0148 28.6212C22.8998 28.067 21.9678 27.2009 21.3309 26.1269L29.266 16.7833C29.7881 16.994 30.2808 17.2721 30.7317 17.6104Z" fill="white"/>
</g>
<g opacity="0.5">
<path opacity="0.5" d="M31.9545 26.8102C31.595 27.2722 31.1746 27.6829 30.7048 28.0309L31.569 18.3585C32.6291 19.4876 33.251 20.9616 33.3217 22.5124C33.3925 24.0633 32.9073 25.5883 31.9545 26.8102Z" fill="white"/>
</g>
<g opacity="0.5">
<path opacity="0.5" d="M27.4385 16.3489L20.5603 21.4798C20.8852 19.9277 21.7642 18.5488 23.0314 17.6035C24.2986 16.6582 25.8663 16.2119 27.4385 16.3489Z" fill="white"/>
</g>
<path d="M20.8022 36.3464C20.8566 36.422 20.8947 36.5081 20.9142 36.5994C20.9336 36.6906 20.9339 36.7849 20.915 36.8762C20.8962 36.9676 20.8585 37.054 20.8046 37.1299C20.7506 37.2058 20.6815 37.2696 20.6017 37.3172C20.0271 37.8097 14.9054 36.8275 14.2847 35.9355C13.4135 34.6823 16.9421 30.1145 18.9812 30.236C20.6013 30.3325 23.6172 33.9303 23.4478 34.8235C23.293 35.6424 22.4247 35.3982 22.4247 35.3982C22.5002 35.5601 22.5215 35.7422 22.4853 35.9172C22.449 36.0923 22.3573 36.2508 22.2238 36.369C21.748 36.7671 20.8022 36.3464 20.8022 36.3464Z" fill="#F0BC9F"/>
<path d="M22.2336 35.5719C21.2623 34.5578 20.1506 33.6896 18.933 32.9942L19.1854 32.548C20.453 33.2675 21.6081 34.1709 22.6134 35.2292L22.2336 35.5719Z" fill="black"/>
<path d="M20.6445 36.5484C19.7412 35.848 18.7896 35.213 17.7968 34.6483L18.0418 34.1968C19.06 34.7749 20.035 35.4265 20.9594 36.1465L20.6445 36.5484Z" fill="black"/>
<path d="M41.4342 22.6028C40.9189 22.6029 40.4152 22.4494 39.9867 22.1617C39.5582 21.874 39.2243 21.4651 39.027 20.9867C38.8298 20.5082 38.7781 19.9817 38.8786 19.4738C38.9791 18.9658 39.2272 18.4992 39.5915 18.133C39.9558 17.7667 40.42 17.5173 40.9254 17.4163C41.4307 17.3152 41.9546 17.367 42.4306 17.5652C42.9067 17.7634 43.3135 18.099 43.5998 18.5296C43.8861 18.9602 44.0389 19.4665 44.0389 19.9844C44.038 20.6785 43.7633 21.3439 43.2751 21.8348C42.7868 22.3256 42.1247 22.6018 41.4342 22.6028ZM41.4342 17.879C41.0199 17.8789 40.6148 18.0023 40.2703 18.2336C39.9258 18.4649 39.6573 18.7937 39.4987 19.1784C39.3401 19.5631 39.2985 19.9864 39.3793 20.3948C39.4601 20.8033 39.6595 21.1784 39.9525 21.4729C40.2454 21.7674 40.6186 21.9679 41.025 22.0492C41.4313 22.1305 41.8525 22.0888 42.2353 21.9295C42.618 21.7701 42.9452 21.5003 43.1754 21.1541C43.4055 20.8078 43.5284 20.4008 43.5284 19.9844C43.5274 19.4265 43.3065 18.8917 42.9139 18.4973C42.5213 18.1029 41.9892 17.881 41.4342 17.8802V17.879Z" fill="#212121"/>
<path d="M47.3285 22.6028C46.8133 22.6028 46.3096 22.4492 45.8812 22.1615C45.4528 21.8738 45.1189 21.4648 44.9217 20.9864C44.7245 20.5079 44.6729 19.9814 44.7734 19.4735C44.874 18.9656 45.1221 18.499 45.4864 18.1328C45.8508 17.7666 46.315 17.5173 46.8203 17.4162C47.3256 17.3152 47.8494 17.3671 48.3255 17.5652C48.8015 17.7634 49.2084 18.099 49.4946 18.5296C49.7809 18.9602 49.9337 19.4665 49.9337 19.9844C49.9328 20.6785 49.6581 21.344 49.1697 21.8349C48.6813 22.3258 48.0192 22.6019 47.3285 22.6028ZM47.3285 17.879C46.9143 17.879 46.5093 18.0025 46.1648 18.2338C45.8203 18.4652 45.5519 18.794 45.3933 19.1787C45.2348 19.5634 45.1933 19.9867 45.2741 20.3951C45.355 20.8035 45.5545 21.1786 45.8474 21.473C46.1403 21.7675 46.5136 21.968 46.9199 22.0492C47.3262 22.1305 47.7474 22.0888 48.1301 21.9294C48.5129 21.7701 48.84 21.5002 49.0702 21.154C49.3003 20.8078 49.4232 20.4007 49.4232 19.9844C49.4222 19.4264 49.2012 18.8916 48.8085 18.4972C48.4159 18.1028 47.8837 17.8809 47.3285 17.8802V17.879Z" fill="#212121"/>
<path d="M44.9785 19.6874H43.7836V20.2005H44.9785V19.6874Z" fill="#212121"/>
<path d="M55.7643 16.1192L49.5508 19.7214L49.8058 20.1659L56.0194 16.5637L55.7643 16.1192Z" fill="#212121"/>
<path d="M56.5857 16.8095C54.2776 16.8918 52.0108 16.1791 50.1608 14.7896C48.3107 13.4 46.9885 11.417 46.413 9.16889C45.0013 11.2723 42.9431 12.8532 40.553 13.6698C40.5583 13.6542 40.5628 13.6369 40.5685 13.6205C40.6293 13.4313 40.6935 13.2429 40.7625 13.0582C40.8078 12.9243 40.856 12.7959 40.9091 12.6678C40.9736 12.4999 41.0439 12.3341 41.1133 12.1715C41.868 10.4426 42.9262 9.01907 44.2988 8.17512C44.61 7.98135 44.9395 7.8191 45.2826 7.69076C45.4416 7.62993 45.6037 7.57746 45.7682 7.53355C45.9001 7.4966 46.0361 7.46541 46.1721 7.43873C46.5396 7.36837 46.9129 7.33332 47.287 7.33405C47.3225 7.33405 47.3584 7.33405 47.3952 7.33405C50.6926 7.35745 52.8138 8.7034 54.1798 10.418C55.9094 12.5828 56.4285 15.3404 56.5857 16.8095Z" fill="black"/>
<path d="M54.5357 17.4873C54.73 17.1984 54.9973 16.9668 55.3101 16.8161C55.623 16.6655 55.9701 16.6013 56.3159 16.6302C57.0115 16.7007 57.6547 17.0337 58.1157 17.562C58.6548 18.1528 58.9748 18.9123 59.0219 19.7125C59.069 20.5128 58.8402 21.3049 58.3741 21.9554C57.908 22.6059 57.233 23.075 56.463 23.2838C55.6929 23.4925 54.8748 23.4281 54.1465 23.1014" fill="#F0BC9F"/>
<path d="M56.7535 21.2329L56.2446 21.1959C56.2717 20.7765 56.2122 20.356 56.0698 19.9609C55.9274 19.5657 55.7053 19.2044 55.4172 18.8997L55.6071 18.4654L57.1472 18.5032L57.1345 19.0163L56.1462 18.9917C56.5912 19.65 56.805 20.4387 56.7535 21.2329Z" fill="black"/>
<path d="M50.4979 43.2126C48.7987 43.241 47.1346 42.7246 45.7471 41.7382C43.7946 40.281 42.8242 37.7508 43.3882 35.5851L43.882 35.7148C43.3698 37.6851 44.2618 39.9908 46.0514 41.326C47.6731 42.5361 49.9907 42.9836 52.2516 42.5218C54.3988 42.0232 56.382 40.9771 58.0099 39.4842C59.6453 37.9862 61.1409 36.341 62.4782 34.5692L62.8759 34.891C61.5195 36.6873 60.0021 38.355 58.3428 39.873C56.649 41.4237 54.5862 42.5095 52.3533 43.0254C51.7426 43.15 51.1211 43.2127 50.4979 43.2126Z" fill="black"/>
<path d="M27.4003 40.0151L15.949 48.4369C14.5433 45.2733 13.713 43.0424 13.713 43.0424L24.9438 36.1567L27.4003 40.0151Z" fill="white"/>
<path d="M60.3355 69.0153C56.7266 69.3848 54.0197 69.3848 54.0197 69.3848L50.5149 56.7351L55.2147 55.0201L60.3355 69.0153Z" fill="white"/>
<path d="M16.9878 45.6077C16.7758 45.6077 16.5685 45.5445 16.3922 45.4261C16.2159 45.3077 16.0785 45.1395 15.9974 44.9426C15.9162 44.7457 15.895 44.529 15.9364 44.32C15.9777 44.111 16.0798 43.919 16.2298 43.7683C16.3797 43.6176 16.5707 43.515 16.7787 43.4734C16.9866 43.4319 17.2022 43.4532 17.398 43.5348C17.5939 43.6163 17.7614 43.7544 17.8792 43.9316C17.997 44.1088 18.0598 44.3171 18.0598 44.5302C18.0595 44.8159 17.9465 45.0898 17.7455 45.2918C17.5445 45.4938 17.272 45.6074 16.9878 45.6077ZM16.9878 43.9658C16.8767 43.9658 16.7682 43.9989 16.6758 44.0609C16.5835 44.123 16.5115 44.2111 16.469 44.3142C16.4265 44.4174 16.4154 44.5309 16.4371 44.6403C16.4587 44.7498 16.5122 44.8504 16.5907 44.9293C16.6693 45.0083 16.7693 45.062 16.8782 45.0838C16.9872 45.1056 17.1001 45.0944 17.2027 45.0517C17.3053 45.009 17.393 44.9366 17.4547 44.8438C17.5164 44.751 17.5493 44.6419 17.5493 44.5302C17.5491 44.3806 17.4899 44.2372 17.3846 44.1314C17.2794 44.0256 17.1367 43.966 16.9878 43.9658Z" fill="black"/>
<path d="M56.0912 67.1579C55.8792 67.1579 55.6719 67.0947 55.4956 66.9763C55.3193 66.8579 55.1819 66.6896 55.1008 66.4927C55.0196 66.2958 54.9984 66.0792 55.0398 65.8702C55.0811 65.6611 55.1832 65.4692 55.3332 65.3185C55.4831 65.1678 55.6741 65.0652 55.8821 65.0236C56.09 64.982 56.3056 65.0033 56.5014 65.0849C56.6973 65.1665 56.8648 65.3045 56.9826 65.4817C57.1004 65.6589 57.1632 65.8673 57.1632 66.0804C57.163 66.3661 57.05 66.64 56.849 66.842C56.648 67.044 56.3754 67.1576 56.0912 67.1579ZM56.0912 65.516C55.9801 65.516 55.8716 65.5491 55.7792 65.6111C55.6869 65.6731 55.6149 65.7613 55.5724 65.8644C55.5299 65.9675 55.5188 66.081 55.5404 66.1905C55.5621 66.3 55.6156 66.4005 55.6941 66.4795C55.7727 66.5584 55.8727 66.6121 55.9816 66.6339C56.0906 66.6557 56.2035 66.6445 56.3061 66.6018C56.4087 66.5591 56.4964 66.4867 56.5581 66.3939C56.6198 66.3011 56.6527 66.192 56.6527 66.0804C56.6525 65.9307 56.5933 65.7873 56.488 65.6815C56.3828 65.5757 56.2401 65.5162 56.0912 65.516Z" fill="black"/>
<path d="M4.40605 69.272C2.60462 66.5989 1.02904 64.4062 0.344571 61.2521C-0.339896 58.098 -0.0544245 54.636 1.65143 51.9018C3.35729 49.1676 6.63383 47.3386 9.80337 47.8504C12.6013 48.302 14.903 50.4364 16.2789 52.928C17.6547 55.4196 18.2502 58.2552 18.8285 61.0436C19.408 59.8017 20.3414 58.7607 21.5101 58.0525C22.6789 57.3442 24.0305 57.0006 25.3938 57.0652C26.7542 57.1743 28.0573 57.6626 29.1568 58.4751C30.2563 59.2877 31.1085 60.3924 31.6177 61.665C32.0927 62.9509 32.2258 64.339 32.0038 65.6924C31.7818 67.0458 31.2123 68.3175 30.3517 69.382" fill="#16A75C"/>
<path d="M60.4584 69.5455C59.7154 68.6328 59.2242 67.5399 59.0338 66.3763C58.8434 65.2126 58.9607 64.0192 59.3738 62.9154C59.8082 61.8162 60.5415 60.8618 61.4898 60.1614C62.4381 59.461 63.5632 59.0427 64.7368 58.9543C65.791 58.9106 66.8383 59.1456 67.774 59.6358C68.7097 60.126 69.501 60.8543 70.0692 61.748C70.5057 59.6739 71.0085 57.5648 72.0568 55.6688C73.3596 53.3111 75.4269 51.695 77.5877 51.3461C80.1691 50.9291 83.0438 52.3534 84.5769 54.8093C85.912 56.9471 86.3179 59.8315 85.6906 62.7233C85.1491 65.2194 83.9517 66.9923 82.5648 69.0414L82.2985 69.4363L81.8758 69.1489L82.1429 68.7536C83.4996 66.7472 84.6713 65.0142 85.192 62.6145C85.7907 59.8533 85.4092 57.108 84.1448 55.0831C82.7155 52.7967 80.054 51.468 77.6685 51.8539C75.6613 52.1777 73.7304 53.6973 72.5032 55.9176C71.3756 57.9577 70.8917 60.2912 70.4236 62.548L69.9405 62.5994C69.4812 61.6228 68.7451 60.8045 67.8245 60.2471C66.904 59.6898 65.8402 59.4182 64.7666 59.4666C63.6927 59.5571 62.6648 59.9447 61.7968 60.5865C60.9287 61.2283 60.2544 62.0992 59.8487 63.1026C59.4767 64.1225 59.3736 65.2217 59.5495 66.2935C59.7254 67.3652 60.1743 68.373 60.8525 69.2187L60.4584 69.5455Z" fill="black"/>
<path d="M65.33 13.6653C65.1984 13.6652 65.0668 13.6581 64.9359 13.644C64.197 13.5668 63.5157 13.2075 63.0326 12.6402C62.5495 12.0729 62.3015 11.3409 62.3398 10.5952C62.378 9.84945 62.6996 9.14693 63.2381 8.63255C63.7767 8.11818 64.4911 7.8312 65.2341 7.83082H65.2492C65.7656 7.80378 66.2791 7.92438 66.7301 8.17865C67.1812 8.43292 67.5513 8.81045 67.7975 9.26749C68.0556 9.76965 68.1764 10.3316 68.1477 10.8961C68.119 11.4605 67.9418 12.0072 67.6342 12.4803C67.3819 12.8583 67.0379 13.1654 66.6348 13.3727C66.2317 13.5801 65.7826 13.6808 65.33 13.6653ZM64.9903 13.1317C65.4108 13.2025 65.8428 13.1516 66.2357 12.9851C66.6287 12.8185 66.9664 12.5431 67.2095 12.1909C67.4667 11.7958 67.6151 11.3392 67.6393 10.8676C67.6636 10.396 67.5629 9.92645 67.3475 9.5068C67.1429 9.13321 66.8371 8.82552 66.4657 8.61936C66.0943 8.41319 65.6723 8.31698 65.2488 8.34187H65.2361C64.625 8.34399 64.038 8.58133 63.5957 9.00509C63.1534 9.42886 62.8894 10.0068 62.858 10.6202C62.8266 11.2336 63.0302 11.8357 63.427 12.3029C63.8237 12.77 64.3834 13.0666 64.9911 13.1317H64.9903Z" fill="black"/>
<path d="M7.79288 69.5268L7.37061 69.2394C8.09919 68.2146 8.93776 67.2734 9.87119 66.433C11.9087 64.5953 14.0205 63.6573 15.9824 63.7238C18.6369 63.8133 21.042 65.6736 23.1293 69.253L22.689 69.5124C20.6948 66.0948 18.4323 64.3199 15.964 64.2369C15.9036 64.2345 15.8415 64.2337 15.7823 64.2337C11.4264 64.2332 7.82923 69.473 7.79288 69.5268Z" fill="white"/>
<path d="M4.74316 57.9397C6.28853 60.0293 8.37462 61.6527 10.7743 62.6331L10.807 62.6557C12.0357 61.5687 12.9129 60.1371 13.3256 58.545C13.7383 56.9529 13.6678 55.2731 13.123 53.7217C12.347 51.6311 10.7408 49.9453 9.86523 47.8978C9.10153 46.1082 8.92959 44.1301 8.53386 42.2234C8.4726 41.927 8.40318 41.6282 8.32559 41.3318C8.29333 41.3425 8.26065 41.3528 8.22635 41.3622C7.92653 41.438 7.6093 41.397 7.33827 41.2476C7.06724 41.0981 6.86244 40.8512 6.76494 40.5563C6.66744 40.2615 6.68445 39.9404 6.81256 39.6577C6.94067 39.3749 7.17041 39.1512 7.45571 39.0315C7.07971 38.3014 6.56088 37.6551 5.93036 37.1314C4.73335 36.1607 2.82208 35.8438 1.71738 36.92C0.833206 37.782 0.773984 39.19 1.00023 40.4062C1.53931 43.3083 3.33624 45.9033 3.58577 48.8452C3.73524 50.6066 3.31419 52.3708 3.37014 54.1371C3.38886 54.6807 3.48119 55.2193 3.64458 55.7379C3.69055 55.7162 3.73805 55.698 3.7867 55.6833C5.21689 55.2491 5.9128 57.3212 4.74316 57.9397Z" fill="#A8DADC"/>
<path d="M4.74392 42.1307L4.25635 42.2824L12.6456 69.4546L13.1331 69.3029L4.74392 42.1307Z" fill="black"/>
<path d="M1.19062 44.5385L0.843994 44.9151L6.82242 50.4738L7.16905 50.0972L1.19062 44.5385Z" fill="black"/>
<path d="M11.4063 47.0597L8.41919 55.5875L8.90058 55.7578L11.8877 47.2301L11.4063 47.0597Z" fill="black"/>
<path d="M8.01379 37.7899L5.68604 46.8529L6.18032 46.9812L8.50808 37.9182L8.01379 37.7899Z" fill="black"/>
<path d="M2.72466 52.6073L2.42554 53.0231L9.1058 57.8664L9.40492 57.4506L2.72466 52.6073Z" fill="black"/>
</svg>
