<svg width="109" height="70" viewBox="0 0 109 70" fill="none" xmlns="http://www.w3.org/2000/svg">
<path d="M95.0921 57.537C94.3147 60.8254 92.1571 63.8435 89.1844 66.0055C87.6781 67.0998 86.0061 67.9498 84.2307 68.5237C81.93 69.2687 79.4615 69.5396 77.0176 69.6315C74.3802 69.7311 71.7336 69.6557 69.0944 69.6315L60.8659 69.5555C55.3819 69.5032 49.8973 69.452 44.4121 69.4019C38.9635 69.35 33.5154 69.299 28.0679 69.2489C28.0553 69.2499 28.0426 69.2476 28.0311 69.2423C28.0196 69.237 28.0096 69.2289 28.0021 69.2187C27.9947 69.2085 27.99 69.1966 27.9885 69.1841C27.987 69.1716 27.9887 69.1589 27.9935 69.1473C28.0981 68.913 23.2459 64.5415 22.6286 63.9121C20.7047 61.951 18.8344 59.9035 17.8161 57.461C16.5989 54.5407 16.8675 50.9466 19.424 48.7625C23.0508 45.6636 29.3301 45.7374 28.6841 40.0455C28.3121 36.7698 25.7615 34.1884 24.6369 31.1205C21.784 23.338 25.5141 14.0769 34.6969 10.9059C38.5469 9.57639 42.9266 9.59465 46.8457 10.7152C49.9274 11.5965 52.1092 13.5204 54.2736 15.5055C56.29 17.3554 59.2041 20.4952 62.5822 19.5974C64.9166 18.9771 66.5688 17.3377 68.7493 16.4648C71.1246 15.5107 73.7113 15.1938 76.2493 15.5459C79.6081 16.0373 82.7112 17.8422 84.3528 20.4098C87.4491 25.2528 83.6748 29.1878 81.9406 33.6721C81.3135 35.2953 81.1492 37.1594 82.1218 38.6523C83.6691 41.0281 87.2791 41.8135 89.5548 43.5727C91.0168 44.6984 92.2685 46.0696 93.253 47.624C95.1494 50.6303 95.8852 54.1749 95.0921 57.537Z" fill="#FFD026"/>
<path d="M73.2621 13.1679C74.4523 13.1679 75.4172 12.211 75.4172 11.0306C75.4172 9.85026 74.4523 8.89337 73.2621 8.89337C72.0719 8.89337 71.1071 9.85026 71.1071 11.0306C71.1071 12.211 72.0719 13.1679 73.2621 13.1679Z" fill="#F2994A"/>
<path d="M78.3812 8.52151C79.0012 8.52151 79.5037 8.02312 79.5037 7.40833C79.5037 6.79353 79.0012 6.29514 78.3812 6.29514C77.7613 6.29514 77.2588 6.79353 77.2588 7.40833C77.2588 8.02312 77.7613 8.52151 78.3812 8.52151Z" fill="#F2994A"/>
<path d="M7.89258 63.1332C9.02091 62.7567 9.62781 61.5443 9.24813 60.4253C8.86845 59.3063 7.64596 58.7044 6.51763 59.081C5.3893 59.4575 4.7824 60.6699 5.16208 61.7889C5.54176 62.9079 6.76425 63.5098 7.89258 63.1332Z" fill="#F2994A"/>
<path d="M90.7062 20.4158C90.4941 20.4809 90.2674 20.4821 90.0546 20.4193C89.8418 20.3565 89.6526 20.2326 89.5108 20.0631C89.369 19.8937 89.2811 19.6863 89.2582 19.4673C89.2353 19.2484 89.2783 19.0275 89.3819 18.8328C89.4856 18.6381 89.6451 18.4782 89.8403 18.3734C90.0355 18.2686 90.2577 18.2235 90.4788 18.2439C90.6998 18.2644 90.9098 18.3493 91.0821 18.4881C91.2545 18.6269 91.3815 18.8132 91.447 19.0236C91.5349 19.3056 91.5062 19.6107 91.3673 19.8718C91.2284 20.1329 90.9906 20.3286 90.7062 20.4158Z" fill="#F2994A"/>
<path d="M31.8973 9.55407C31.6852 9.61914 31.4585 9.62038 31.2456 9.55763C31.0328 9.49487 30.8436 9.37094 30.7018 9.20151C30.56 9.03208 30.4721 8.82476 30.4491 8.60576C30.4262 8.38677 30.4692 8.16594 30.5728 7.9712C30.6764 7.77646 30.8359 7.61656 31.0311 7.51173C31.2263 7.40689 31.4485 7.36182 31.6696 7.38222C31.8906 7.40263 32.1006 7.48758 32.273 7.62635C32.4454 7.76511 32.5724 7.95145 32.638 8.1618C32.7259 8.44383 32.6972 8.74894 32.5584 9.01003C32.4195 9.27113 32.1817 9.46682 31.8973 9.55407Z" fill="#F2994A"/>
<path d="M3.64977 37.2048C4.74804 36.7499 5.2665 35.4982 4.80778 34.409C4.34906 33.3198 3.08687 32.8056 1.9886 33.2605C0.890326 33.7154 0.371865 34.9672 0.830585 36.0564C1.2893 37.1456 2.5515 37.6598 3.64977 37.2048Z" fill="#F2994A"/>
<path d="M9.06047 31.6104C9.06047 31.8306 8.99464 32.0458 8.87129 32.2289C8.74794 32.412 8.57263 32.5546 8.36751 32.6389C8.1624 32.7231 7.9367 32.7452 7.71896 32.7022C7.50122 32.6592 7.30122 32.5532 7.14425 32.3975C6.98728 32.2418 6.88039 32.0434 6.8371 31.8275C6.79381 31.6115 6.81606 31.3877 6.90105 31.1843C6.98603 30.9809 7.12993 30.807 7.31454 30.6847C7.49915 30.5625 7.71619 30.4972 7.9382 30.4972C8.0856 30.4972 8.23156 30.526 8.36774 30.5819C8.50393 30.6379 8.62767 30.7199 8.73189 30.8232C8.83611 30.9266 8.91877 31.0493 8.97515 31.1844C9.03153 31.3195 9.06052 31.4642 9.06047 31.6104Z" fill="#F2994A"/>
<path d="M82.0421 69.3941C82.025 69.3387 82.0596 69.4535 82.0321 69.3609C82.0045 69.2683 81.9625 69.1144 81.9058 68.9615C81.2163 67.1046 80.1658 65.6625 79.442 63.723C78.8909 62.2464 78.7328 60.318 79.1784 58.7164C79.2093 58.6035 79.253 58.4945 79.3086 58.3913C79.5863 57.8701 79.8033 57.3984 80.2322 56.9445C81.335 55.7769 82.57 54.9457 83.1586 53.3674C83.1802 53.3005 83.1959 53.2319 83.2057 53.1624C83.2325 53.0058 83.2511 52.848 83.2615 52.6895C83.3119 51.9085 83.1303 51.0515 83.0355 50.3069C82.9153 49.3662 82.9326 48.2676 83.7255 47.7098C84.6839 47.0354 85.7824 47.7743 86.8383 47.4646C88.0351 47.1142 88.6301 46.2516 89.2376 45.2017C89.3174 45.0636 89.384 44.9123 89.4667 44.7605C90.3632 43.1189 91.0465 41.7061 93.0897 41.4071C94.2452 41.2382 95.4821 41.7301 96.6471 41.8568C96.7559 41.8686 96.8984 41.9077 97.0133 41.916C97.1283 41.9243 97.2421 41.9487 97.3598 41.9489C99.4387 41.9505 101.433 41.5246 103.498 41.2778C103.52 41.2742 103.543 41.2721 103.565 41.2716C103.639 41.2664 103.838 41.2465 103.96 41.243C105.411 41.2018 106.809 41.2395 108.028 42.085C108.384 42.3316 108.521 42.6247 108.729 42.9656C108.781 43.0464 108.821 43.1345 108.847 43.227C109.089 44.1793 109.107 45.1136 108.398 45.9028C107.688 46.6921 106.704 46.7698 105.695 46.95C105.574 46.9716 105.422 46.997 105.307 47.0221C104.878 47.1067 104.468 47.2705 104.1 47.5052C103.249 48.1062 103.074 49.2623 102.072 49.6355C101.069 50.0086 99.962 49.2913 98.9283 49.6119C98.8401 49.6397 98.7561 49.6794 98.6787 49.7297C98.5982 49.7762 98.5241 49.8328 98.4581 49.8979C97.8036 50.5756 97.681 51.5464 96.9771 52.1975C96.4442 52.6902 95.679 52.7878 95.0096 53.0892C94.8823 53.1366 94.7597 53.1958 94.6434 53.2659C94.6276 53.2753 95.0889 52.9774 94.4931 53.3637C93.8974 53.7499 93.9108 55.3268 93.9776 56.4385C94.0321 57.346 92.5484 57.5598 91.8461 57.5803C91.6127 57.5923 91.3807 57.6249 91.1531 57.6777C90.9803 57.708 90.8123 57.7612 90.6537 57.8358C90.2663 58.0311 89.9548 58.2906 89.8988 58.758C89.8264 59.3634 90.089 60.028 90.235 60.6129C90.2577 60.7139 90.2737 60.8162 90.2827 60.9193C90.2861 60.9387 90.2877 60.9583 90.2875 60.978C90.2395 61.8449 89.7697 62.415 89.1846 63.0143C89.0493 63.1529 88.9582 63.267 88.8262 63.4227C86.8894 65.7487 84.6009 67.7631 82.0421 69.3941Z" fill="#16A75C"/>
<g style="mix-blend-mode:multiply">
<path d="M81.2876 69.2933C81.2486 69.1537 81.2063 69.0155 81.1589 68.879C81.6633 67.8419 82.217 66.85 82.7398 65.8158C82.9543 65.4505 83.1355 65.067 83.2813 64.6698C82.8446 64.098 82.3987 63.511 81.9717 62.9379C80.8676 61.4386 79.684 59.9985 78.4258 58.6237C78.466 58.5169 78.51 58.4105 78.556 58.3057C80.3073 60.2087 81.8006 62.2881 83.3821 64.3261C84.0342 62.1901 84.8372 60.1023 85.7851 58.0781C85.779 58.0476 85.7819 58.016 85.7936 57.9872C85.8052 57.9583 85.8251 57.9335 85.8507 57.9156C85.4881 57.2536 85.0685 56.5982 84.6641 55.9681C84.0068 54.9507 83.2673 53.9878 82.453 53.089C82.4811 52.9289 82.5006 52.7675 82.5115 52.6053C83.8217 54.1706 84.9916 55.8463 86.0081 57.6133C86.0345 57.5627 86.0585 57.5063 86.0866 57.4574C87.1257 55.6053 88.398 53.8917 89.8728 52.3578C89.8675 52.3413 89.8658 52.3238 89.8676 52.3066C89.8694 52.2893 89.8747 52.2726 89.8833 52.2575C89.8919 52.2423 89.9035 52.2291 89.9174 52.2186C89.9314 52.2081 89.9473 52.2006 89.9643 52.1964C89.8871 51.5508 89.8003 50.9091 89.6783 50.2696C89.3455 48.5271 88.901 46.8373 88.4866 45.1157C88.5651 44.971 88.6406 44.8249 88.7152 44.678C88.7327 44.7352 88.7505 44.7941 88.7645 44.852C89.3364 47.2314 89.905 49.5773 90.2359 52.0066C90.8007 51.5003 91.3816 51.0146 91.949 50.5105C92.8167 49.7166 93.7296 48.9727 94.6831 48.2825C94.8479 47.5181 95.0499 46.7762 95.2154 46.0091C95.519 44.6008 95.8084 43.2144 95.8965 41.7718C96.0185 41.7937 96.1407 41.8124 96.2635 41.8295C96.0812 43.9371 95.5493 45.9919 95.0319 48.0397C96.4933 47.0846 98.0518 46.2841 99.6816 45.6514C100.378 45.3823 101.151 45.1628 101.873 44.9438C101.885 44.9403 101.905 44.9378 101.905 44.9254C101.856 43.6221 102.165 42.3302 102.798 41.1871C102.935 41.1756 103.071 41.1649 103.208 41.1568C102.551 42.2753 102.214 43.5503 102.234 44.8444C104.254 44.3401 106.107 43.7975 107.984 42.8794C107.988 42.9514 108.118 43.067 108.083 43.1334C108.052 43.193 107.94 43.2155 107.856 43.2535C106.085 44.0374 104.243 44.6543 102.355 45.096C103.201 45.7134 104.05 46.316 104.944 46.8642C104.814 46.8849 104.685 46.9083 104.557 46.938C103.678 46.3925 102.851 45.7846 102.001 45.1945C100.941 45.5018 99.8983 45.8628 98.8761 46.2762C97.4961 46.8661 96.181 47.5955 94.9517 48.4527C94.9318 48.4666 94.9485 48.5018 94.9362 48.5184C94.934 48.5212 94.9303 48.523 94.9342 48.5241C95.9606 48.8193 96.9622 49.1937 97.9298 49.6437C97.8517 49.6936 97.7775 49.7491 97.7077 49.8098C96.7321 49.3835 95.7269 49.0272 94.6999 48.7434C94.666 48.7328 94.6368 48.7111 94.6171 48.6818C93.4766 49.5078 92.4622 50.4526 91.4132 51.3881C91.1156 51.6541 90.8054 51.9112 90.5018 52.1721C91.7935 52.2452 93.0648 52.5245 94.2669 52.999C94.1581 53.0443 94.0496 53.0967 93.9451 53.1476C93.9369 53.1515 93.9418 53.1552 93.933 53.1521C92.7469 52.724 91.4988 52.4888 90.237 52.4556C90.204 52.4872 90.1618 52.5077 90.1165 52.5142C88.6154 54.0739 87.3245 55.82 86.2761 57.7088C87.6018 57.2346 89.0457 57.1933 90.3968 57.591C90.2288 57.6303 90.0642 57.6824 89.9042 57.7467C88.5448 57.494 87.311 57.5912 86.0509 58.1759C85.9982 58.2921 85.9467 58.4013 85.8917 58.5179C84.9995 60.4753 84.2441 62.4913 83.6309 64.5516C84.1642 64.1155 84.7194 63.6125 85.242 63.1822C86.5229 62.1027 87.9529 61.2102 89.4884 60.5319C89.5111 60.6363 89.5268 60.742 89.5352 60.8484C87.3102 61.8561 85.6238 63.2938 83.7807 64.8587C83.784 64.8679 83.7933 64.8707 83.7974 64.8793C83.8817 65.0577 83.7334 65.2113 83.5764 65.0601C83.5469 65.0317 83.5309 64.9983 83.5046 64.9679C83.2403 65.5731 82.9388 66.1617 82.6017 66.7303C82.1313 67.5779 81.7005 68.421 81.2876 69.2933Z" fill="#16A75C"/>
</g>
<path d="M93.2086 33.1799C93.2488 35.5531 92.3104 37.7236 91.1943 39.8075C91.1307 39.9306 91.0641 40.0534 90.9999 40.1731C90.6112 40.8844 90.2123 41.5824 89.8235 42.277C89.0493 43.6864 88.3053 45.2187 87.6048 46.8439C87.5446 46.9802 87.4841 47.1165 87.4306 47.2497C86.7703 48.7953 86.1569 50.4139 85.5906 52.0725C85.5437 52.2055 85.4976 52.3418 85.4498 52.4783C85.4126 52.5913 85.3728 52.7044 85.3393 52.8206C85.2788 52.9968 85.2186 53.1729 85.1617 53.3526C84.4378 55.5895 83.8076 57.8861 83.2915 60.1663C83.2714 60.2493 83.2513 60.3359 83.2344 60.4222C83.221 60.4753 83.2076 60.5286 83.1972 60.5817C83.157 60.7678 83.1135 60.9573 83.0767 61.1434C83.0363 61.3195 82.9995 61.4924 82.966 61.6685C82.6108 63.384 82.3225 65.0787 82.1181 66.7141C82.0612 67.1428 82.0141 67.5716 81.974 67.9904C81.9103 68.5489 81.8624 69.0939 81.8265 69.632L81.6388 69.6884L81.5919 69.7019C81.585 69.6994 81.5791 69.6947 81.5752 69.6884H78.4922C78.3916 67.0096 78.2978 64.3273 78.2777 61.6549C78.2777 61.5186 78.2744 61.3825 78.2777 61.2491C78.2642 58.5302 78.328 55.818 78.5324 53.1191C78.5391 52.9728 78.5525 52.8298 78.566 52.6871C78.5694 52.647 78.5725 52.6072 78.5759 52.5674C78.643 51.7165 78.7267 50.8623 78.8307 50.018C78.9211 49.3001 79.0184 48.5793 79.1324 47.8641C79.1491 47.735 79.1696 47.6116 79.1926 47.4853C79.6745 44.443 80.4489 41.4535 81.5053 38.5577C81.5488 38.4285 81.6023 38.2983 81.6526 38.1687C82.609 35.6271 83.8644 33.2063 85.3928 30.9565C85.3962 30.9465 85.4029 30.9432 85.4062 30.9332C85.4732 30.8368 85.5403 30.7405 85.6108 30.6473C86.5259 29.381 87.7125 28.1745 89.2377 28.1345C89.7742 28.1272 90.3033 28.259 90.7727 28.5169C90.8773 28.5672 90.9781 28.6249 91.0743 28.6897C91.518 28.9789 91.9024 29.3488 92.2072 29.7798C92.6752 30.4699 92.9831 31.2542 93.1087 32.0765C93.1288 32.1872 93.1459 32.296 93.1556 32.4085C93.1865 32.6646 93.2042 32.922 93.2086 33.1799Z" fill="#16A75C"/>
<g style="mix-blend-mode:multiply">
<path d="M86.5454 40.7708C88.0747 40.36 89.6268 40.0381 91.1939 39.8068C91.1303 39.9298 91.0637 40.0527 90.9995 40.1724C88.6274 40.5401 86.2924 41.1141 84.0217 41.8878C84.0044 41.8931 83.9862 41.8953 83.9681 41.8945C83.6397 42.7952 83.3246 43.696 83.0363 44.61C82.5605 46.1157 82.1448 47.6351 81.7729 49.1703C83.6693 48.2826 85.6165 47.5057 87.6044 46.8436C87.5442 46.9799 87.4837 47.1162 87.4302 47.2494C85.478 47.912 83.5653 48.6844 81.7016 49.5626C81.6949 49.5692 81.6882 49.5659 81.6815 49.5693C81.3933 50.7926 81.1374 52.0213 80.914 53.2554C80.847 53.6376 80.7899 54.0198 80.7296 54.4021C82.2796 53.4896 83.9054 52.7101 85.5892 52.0721C85.5424 52.2051 85.4962 52.3414 85.4484 52.4779C83.8001 53.1195 82.2092 53.8978 80.6928 54.8046C80.6828 54.8113 80.6727 54.8113 80.6627 54.8179C80.5821 55.3528 80.5051 55.8877 80.438 56.4267C80.1934 58.2912 80.0291 60.1625 79.9453 62.0406C80.1399 61.9176 80.3342 61.7978 80.5319 61.6815C80.5721 61.6549 80.6156 61.6283 80.6593 61.6018C81.2458 61.2528 81.8389 60.9171 82.4449 60.5947C82.5857 60.5209 82.7264 60.4484 82.8704 60.3787C82.971 60.3253 83.075 60.2722 83.1788 60.2224C83.216 60.2025 83.2532 60.1855 83.2894 60.166C83.2694 60.249 83.2493 60.3355 83.2323 60.4218C83.219 60.4749 83.2056 60.5282 83.1951 60.5814C83.1148 60.6212 83.0343 60.6644 82.9534 60.7077C82.8327 60.7675 82.7121 60.8306 82.5914 60.8972C81.9546 61.2329 81.3279 61.5874 80.7112 61.9607C80.6073 62.0205 80.5066 62.0838 80.4062 62.1502C80.3843 62.1612 80.363 62.1735 80.3426 62.187C80.2152 62.2636 80.0911 62.3433 79.9639 62.4232C79.9542 62.4274 79.944 62.4308 79.9336 62.4331C79.9308 62.4473 79.9297 62.4618 79.9302 62.4763C79.9336 62.4972 79.9336 62.5185 79.9302 62.5394C79.9169 62.8651 79.9068 63.1942 79.9035 63.5199C79.8663 64.9791 79.8797 66.4393 79.9436 67.9007C79.9503 68.1068 79.9606 68.3161 79.9773 68.5256C79.994 68.9145 80.0175 69.3004 80.0476 69.6888H79.7128C79.6693 69.1305 79.6384 68.5688 79.6157 68.007C79.6022 67.781 79.5955 67.5517 79.5854 67.3258C79.5553 66.4548 79.5441 65.5839 79.5519 64.7132C79.5553 64.0052 79.5698 63.2995 79.5955 62.596C79.1632 62.2736 78.723 61.96 78.2749 61.6553C78.2749 61.519 78.2716 61.3828 78.2749 61.2495C78.7273 61.5586 79.1731 61.8766 79.612 62.2C79.6289 61.7779 79.6423 61.3559 79.6658 60.937C79.7695 59.2419 79.9382 57.5556 80.1719 55.8782C80.2154 55.5424 80.2649 55.2067 80.316 54.8743C79.917 54.459 79.5116 54.0502 79.0959 53.6545C78.9082 53.4718 78.7206 53.2956 78.5295 53.1196C78.5362 52.9734 78.5496 52.8304 78.5632 52.6876C78.6032 52.7275 78.6469 52.764 78.6871 52.8038C79.2637 53.3423 79.8266 53.8908 80.3729 54.4591C80.5031 53.6381 80.6444 52.8175 80.8051 51.9994C80.9526 51.2483 81.1135 50.5039 81.2845 49.7559C81.2666 49.7517 81.2503 49.7425 81.2376 49.7294C80.5639 49.0779 79.8601 48.4531 79.1296 47.8647C79.1463 47.7356 79.1667 47.6122 79.1898 47.4858C79.9438 48.0908 80.6746 48.7289 81.375 49.397C81.8575 47.3396 82.4362 45.3054 83.1111 43.2945C83.272 42.8193 83.4459 42.3473 83.617 41.8753C82.9134 40.7719 82.2094 39.6618 81.5024 38.5582C81.546 38.4291 81.5995 38.2989 81.6497 38.1692C82.3538 39.2729 83.0565 40.3753 83.758 41.4765C84.5722 39.2705 85.4995 37.1073 86.5363 34.9951C86.6503 34.7723 86.7608 34.5524 86.8711 34.3311C86.4416 33.1798 85.947 32.0535 85.3897 30.9574C85.393 30.9475 85.3997 30.9441 85.403 30.9342C85.47 30.8377 85.5372 30.7414 85.6076 30.6483C86.1524 31.7161 86.6413 32.811 87.0723 33.9288C87.5818 32.9327 88.1139 31.9446 88.7078 31.0006C89.2646 30.0746 89.9595 29.2376 90.7689 28.5178C90.8736 28.5681 90.9744 28.6259 91.0706 28.6906C91.0606 28.6973 91.0572 28.7006 91.0472 28.7072C89.8827 29.6791 89.0656 30.9888 88.3389 32.2943C87.9636 32.9584 87.605 33.6338 87.2602 34.3086C87.9238 33.9994 88.5975 33.7047 89.2812 33.4243C90.5332 32.9109 91.8106 32.4605 93.1085 32.0748C93.1286 32.1855 93.1457 32.2943 93.1554 32.4069C91.1177 33.019 89.1301 33.7846 87.21 34.697C87.1881 34.7074 87.1642 34.713 87.1399 34.7136C87.1157 34.7142 87.0915 34.7097 87.0692 34.7004C86.8077 35.2155 86.5497 35.7374 86.3016 36.2625C85.494 37.9779 84.7701 39.7325 84.1132 41.5075C84.9135 41.2356 85.7242 40.99 86.5454 40.7708Z" fill="#16A75C"/>
</g>
<path d="M67.9952 33.8313L68.1245 33.7635C68.1099 33.7365 66.6808 31.0405 63.7271 30.2076C62.2263 29.7844 61.3614 28.6238 60.9002 27.7249C60.596 27.1321 60.3768 26.4991 60.2493 25.8447L60.1051 25.8679C60.1109 25.9042 60.7197 29.5116 63.6876 30.3487C66.5812 31.1646 67.9813 33.8039 67.9952 33.8313Z" fill="#212121"/>
<path d="M44.9496 42.6429L45.0925 42.6136C43.7723 36.2427 46.7471 34.1026 48.1768 33.0746C48.6235 32.7532 48.8932 32.5594 48.886 32.345C48.7097 27.0379 50.2918 24.6232 50.3077 24.5993L50.1867 24.5174C50.1701 24.5422 49.7728 25.1404 49.3931 26.4098C49.0439 27.5767 48.6472 29.5546 48.7402 32.3499C48.7447 32.4858 48.4565 32.6931 48.0918 32.9555C46.6372 34.0014 43.6097 36.1788 44.9496 42.6429Z" fill="#212121"/>
<path d="M43.9479 32.3423C43.9479 32.3423 46.3561 35.0473 41.2356 38.844C39.5684 40.0804 38.5412 37.2784 38.5412 37.2784C38.5412 37.2784 40.9072 36.2777 40.9405 34.8018C40.9737 33.3259 43.3285 29.9252 43.9479 32.3423Z" fill="#DF9F85"/>
<path d="M67.8873 50.1503C67.8873 50.1503 77.1699 45.9849 70.8356 40.2695C66.5706 36.4212 70.9785 33.5559 64.3626 31.2033C59.625 29.5187 65.4413 22.9084 57.1922 20.595C53.8033 19.6446 48.8832 21.2163 49.3123 29.0939C49.6147 34.6445 44.9147 31.4992 45.3054 38.2147C45.5717 42.7904 41.654 41.2411 41.9289 45.3066C42.2037 49.3721 67.8873 50.1503 67.8873 50.1503Z" fill="#212121"/>
<path d="M57.4717 29.0105C57.4717 29.0105 56.1993 36.3897 58.9712 38.0974C61.0976 39.4073 68.3927 39.4559 63.8674 55.6656C59.3422 71.8753 62.7544 69.8905 62.7544 69.8905H46.0806C46.0806 69.8905 41.158 48.1186 42.4492 43.6172C43.7404 39.1157 53.0476 42.8666 53.1648 31.9938C53.1648 31.9938 54.6629 28.5372 57.4717 29.0105Z" fill="#DF9F85"/>
<path d="M58.9148 24.8903C58.9148 24.8903 57.5469 22.2227 54.4234 22.2444C51.2999 22.2661 48.266 30.9526 51.9119 32.1696C55.5577 33.3866 60.5647 28.0639 58.9148 24.8903Z" fill="#DF9F85"/>
<path d="M55.6093 20.9535C55.6093 20.9535 55.8904 22.502 54.4864 22.9751C53.0823 23.4481 50.8685 24.5954 50.7705 25.8229C50.6724 27.0505 48.9061 19.9438 55.6093 20.9535Z" fill="#212121"/>
<path d="M57.3 30.2781C57.3 30.2781 55.3785 32.0774 53.0245 32.3423C53.0739 33.0273 53.0517 33.7157 52.9583 34.3962C52.8881 34.7841 57.3232 35.3321 57.3 30.2781Z" fill="#C05C5D"/>
<path d="M58.315 28.7071C58.315 28.7071 59.435 27.7223 59.9918 28.7282C60.5486 29.7342 58.3632 32.0278 57.2995 30.2781C56.2358 28.5284 58.315 28.7071 58.315 28.7071Z" fill="#DF9F85"/>
<path d="M58.9712 38.0974C58.9712 38.0974 56.9716 45.5459 52.6132 44.3832C49.7507 43.6195 50.9589 38.6234 50.9589 38.6234C50.9589 38.6234 47.4898 40.0124 45.3052 40.308C43.1206 40.6036 42.3775 47.5488 43.1036 51.9328C43.8297 56.3167 42.2335 69.9621 42.2335 69.9621H66.8801C66.8801 69.9621 66.875 47.4394 65.0252 43.1858C63.1754 38.9322 58.9712 38.0974 58.9712 38.0974Z" fill="#212121"/>
<path d="M48.4454 69.9624C48.4454 69.9624 46.1978 59.3646 46.2045 54.598C46.2114 49.5063 44.9098 42.6748 48.8132 38.1509C48.8132 38.1509 45.8812 38.0972 43.0315 42.049C38.9497 47.7095 43.3015 55.33 42.2335 58.6298C41.1654 61.9296 37.3003 66.2731 36.8916 69.9624H48.4454Z" fill="#F7E9DB"/>
<path d="M62.2422 25.5229C60.7053 25.5229 59.4595 24.2725 59.4595 22.73C59.4595 21.1875 60.7053 19.937 62.2422 19.937C63.779 19.937 65.0249 21.1875 65.0249 22.73C65.0249 24.2725 63.779 25.5229 62.2422 25.5229Z" fill="#212121"/>
<path d="M52.6177 28.7804C52.6177 28.7804 53.9139 29.1683 53.0243 30.4332C52.1347 31.6982 51.0841 29.8155 52.6177 28.7804Z" fill="#212121"/>
<path d="M53.0237 30.4332C53.0237 30.4332 52.2674 29.6275 51.9012 30.4398C51.9016 30.4398 52.2647 31.529 53.0237 30.4332Z" fill="#C05C5D"/>
<path d="M53.3254 29.4988L52.1336 29.2335C52.1336 29.2335 52.1931 28.8114 52.7289 28.7794C53.2647 28.7473 53.3254 29.4988 53.3254 29.4988Z" fill="#FFFCF6"/>
<path d="M56.0358 27.7682L58.4172 28.3214L58.3843 28.4642L56.0029 27.9109L56.0358 27.7682Z" fill="#FFFCF6"/>
<path d="M59.4388 22.7766C59.5701 21.2169 59.9896 20.2728 60.6874 19.9707C61.6088 19.5714 62.7227 20.4491 62.7339 20.4581L62.8248 20.3435C62.7767 20.3048 61.632 19.4023 60.63 19.8359C59.8787 20.1608 59.429 21.1461 59.2934 22.7642L59.4388 22.7766Z" fill="#212121"/>
<path d="M66.9092 49.5337C67.1573 49.4256 72.9831 46.8483 73.2581 43.5681C73.3692 42.2405 72.5402 40.9885 70.794 39.8464C69.6246 39.0815 69.4638 37.8267 69.2935 36.4979C69.009 34.2787 68.6866 31.7632 63.2903 31.2933L63.2776 31.4398C68.5569 31.8996 68.8577 34.2471 69.1487 36.5172C69.3238 37.8804 69.4885 39.1686 70.7143 39.9698C72.4117 41.0794 73.2185 42.2856 73.1123 43.556C72.9731 45.2188 71.2824 46.7175 69.8884 47.6818C68.9266 48.3403 67.9105 48.9149 66.8511 49.3994L66.9092 49.5337Z" fill="#212121"/>
<path d="M39.5626 35.5542C39.5626 35.5542 21.1853 44.5562 31.0364 52.0271C37.7423 57.1134 45.3049 49.0004 45.3049 49.0004L45.625 39.4005C45.625 39.4005 35.8527 47.9662 35.1695 45.2438C34.7608 43.6168 39.8399 43.0449 41.9708 38.5991L39.5626 35.5542Z" fill="#F7E9DB"/>
<path d="M45.3051 29.6275L42.9714 36.2021L39.8919 34.0792C39.8919 34.0792 42.2004 32.4633 43.6958 29.0033L45.3051 29.6275Z" fill="#212121"/>
<path d="M38.4954 17.2831L32.5085 27.6155L41.6999 29.3227L44.4607 24.558L38.4954 17.2831Z" fill="#F7E9DB"/>
<path d="M44.4626 24.5567L48.3776 26.8443L45.5801 31.6671L41.6652 29.3795L44.4626 24.5567Z" fill="#212121"/>
<path d="M46.1792 26.7375L47.8168 27.6943C48.6175 28.1622 48.8887 29.193 48.4226 29.9966L48.2476 30.2982C47.7815 31.1019 46.7545 31.3741 45.9538 30.9062L44.3162 29.9494C43.5155 29.4815 43.2443 28.4507 43.7105 27.6471L43.8854 27.3455C44.3516 26.5418 45.3785 26.2696 46.1792 26.7375Z" fill="#212121"/>
<path d="M72.7007 69.972H56.6437C56.6437 69.972 56.4569 61.9125 58.7975 54.8415C61.1381 47.7704 61.8451 44.5562 60.5114 38.2147C60.5114 38.2147 66.5157 38.9385 67.8862 43.8095C69.2567 48.6806 65.4325 57.9299 67.6169 61.3082C69.8014 64.6865 72.7007 69.972 72.7007 69.972Z" fill="#F7E9DB"/>
<path d="M62.903 25.7957C63.2866 25.8106 63.6629 25.687 63.9635 25.4475C65.0549 24.5376 64.5788 22.2004 64.558 22.1012L64.4152 22.1314C64.4201 22.1548 64.8941 24.4815 63.8701 25.335C63.3502 25.768 62.5233 25.7538 61.4124 25.2923L61.3565 25.4277C61.8436 25.6492 62.3687 25.7742 62.903 25.7957Z" fill="#212121"/>
<path d="M55.6091 20.9535C55.6091 20.9535 54.3847 22.5884 55.9265 23.9858C57.6016 25.5037 57.8283 28.2445 57.7398 29.1768C57.6514 30.109 62.8846 24.5734 55.6091 20.9535Z" fill="#212121"/>
<path d="M58.1265 30.109C58.5377 29.2603 58.8525 29.0756 59.0441 29.07C59.1153 29.0762 59.1839 29.0996 59.2441 29.1382C59.3042 29.1768 59.3542 29.2294 59.3897 29.2916L59.5175 29.2207C59.4693 29.1351 59.4005 29.063 59.3173 29.011C59.2342 28.9591 59.1393 28.929 59.0415 28.9235C58.7035 28.9322 58.3516 29.3095 57.9953 30.0449L58.1265 30.109Z" fill="#212121"/>
<path d="M58.4618 30.2366C58.4809 30.2242 58.9288 29.9199 58.8983 29.058L58.7523 29.0631C58.7801 29.8434 58.3859 30.1114 58.3818 30.114L58.4618 30.2366Z" fill="#212121"/>
<path d="M55.3344 29.9025C54.9349 29.9025 54.6111 29.5774 54.6111 29.1765C54.6111 28.7755 54.9349 28.4505 55.3344 28.4505C55.7339 28.4505 56.0577 28.7755 56.0577 29.1765C56.0577 29.5774 55.7339 29.9025 55.3344 29.9025Z" fill="#C05C5D"/>
<path d="M51.2121 28.898C50.8126 28.898 50.4888 28.573 50.4888 28.172C50.4888 27.7711 50.8126 27.446 51.2121 27.446C51.6116 27.446 51.9354 27.7711 51.9354 28.172C51.9354 28.573 51.6116 28.898 51.2121 28.898Z" fill="#C05C5D"/>
<path d="M54.922 28.6015C55.2396 28.6013 55.5447 28.4772 55.7728 28.2553C56.0009 28.0335 56.1341 27.7314 56.1443 27.4128C56.1545 27.0941 56.0408 26.784 55.8274 26.548C55.6139 26.3119 55.3174 26.1684 55.0005 26.1478C54.6836 26.1271 54.371 26.231 54.129 26.4374C53.8869 26.6437 53.7343 26.9365 53.7034 27.2538C53.6725 27.571 53.7657 27.8879 53.9633 28.1375C54.1609 28.387 54.4474 28.5497 54.7623 28.5911C54.8153 28.5981 54.8686 28.6015 54.922 28.6015ZM54.9191 26.2942C54.9661 26.2942 55.0131 26.2973 55.0598 26.3034C55.3307 26.3389 55.5781 26.4765 55.7517 26.6883C55.9254 26.9001 56.0122 27.1702 55.9947 27.444C55.9772 27.7177 55.8566 27.9744 55.6574 28.1622C55.4582 28.35 55.1953 28.4546 54.922 28.455C54.8749 28.455 54.8279 28.452 54.7812 28.4459C54.5104 28.4102 54.2632 28.2725 54.0898 28.0607C53.9164 27.8489 53.8297 27.5789 53.8472 27.3053C53.8648 27.0317 53.9852 26.7751 54.1843 26.5873C54.3833 26.3996 54.646 26.2948 54.9191 26.2942Z" fill="#FFFCF6"/>
<path d="M51.8753 27.6132C52.1857 27.613 52.4844 27.4942 52.7108 27.281C52.9371 27.0678 53.0742 26.7761 53.0942 26.4652C53.1141 26.1543 53.0154 25.8474 52.8182 25.6068C52.6209 25.3662 52.3399 25.21 52.032 25.1698C51.9791 25.1629 51.9258 25.1594 51.8724 25.1594C51.5619 25.1596 51.2632 25.2784 51.0369 25.4916C50.8105 25.7048 50.6735 25.9965 50.6535 26.3074C50.6336 26.6183 50.7322 26.9252 50.9295 27.1658C51.1267 27.4064 51.4078 27.5626 51.7156 27.6028C51.7686 27.6097 51.8219 27.6132 51.8753 27.6132ZM51.8724 25.3059C51.9194 25.3059 51.9664 25.3089 52.0131 25.3149C52.2839 25.3507 52.531 25.4884 52.7044 25.7002C52.8778 25.9119 52.9645 26.1819 52.947 26.4555C52.9295 26.7291 52.809 26.9857 52.61 27.1735C52.4111 27.3612 52.1484 27.466 51.8753 27.4667C51.5919 27.4638 51.3212 27.3489 51.1217 27.1469C50.9222 26.9449 50.8101 26.6721 50.8097 26.3877C50.8094 26.1033 50.9207 25.8302 51.1196 25.6277C51.3186 25.4252 51.589 25.3095 51.8724 25.3059Z" fill="#FFFCF6"/>
<path d="M53.0169 26.5934L53.8345 26.8302L53.794 26.9709L52.9765 26.7341L53.0169 26.5934Z" fill="#FFFCF6"/>
<path d="M58.3557 37.5394C58.3557 37.5394 58.021 37.8854 57.5384 38.4054C56.2102 39.8353 54.1072 43.8867 54.4043 44.3822C54.8095 45.0575 57.4315 47.0436 58.4224 45.3071C59.4133 43.5706 60.284 39.3457 60.0849 38.51C59.8858 37.6743 59.2315 36.6103 58.3557 37.5394Z" fill="#F7E9DB"/>
<path d="M51.0209 37.7181C51.0209 37.7181 51.1886 38.054 51.426 38.5544C52.0789 39.9302 53.2457 44.1413 52.9147 44.4494C52.4634 44.8694 49.2448 46.088 48.9095 44.5556C48.5743 43.0232 48.709 39.436 49.5284 38.0662C49.8757 37.4867 50.5869 36.8216 51.0209 37.7181Z" fill="#F7E9DB"/>
<path d="M57.417 65.8278C57.5406 65.703 60.4528 62.7369 61.2142 59.7053C61.8088 57.3373 60.5353 55.7062 59.8991 55.0677C60.4915 55.0823 61.5676 54.9861 62.4573 54.2154C63.4373 53.3657 63.9056 51.9469 63.8489 49.9965C63.6853 44.3567 61.7431 41.244 61.7236 41.2132L61.4775 41.3708C61.4968 41.401 63.396 44.4532 63.5572 50.005C63.611 51.8623 63.1768 53.2042 62.2665 53.993C61.0944 55.0083 59.5199 54.7424 59.5044 54.7401C59.472 54.7343 59.4387 54.7397 59.4098 54.7553C59.3808 54.7709 59.358 54.7959 59.3449 54.8261C59.3319 54.8564 59.3294 54.8902 59.3379 54.9221C59.3463 54.9539 59.3652 54.982 59.3916 55.0017C59.4143 55.0187 61.6576 56.7407 60.9311 59.6337C60.1896 62.5863 57.2397 65.5911 57.21 65.6211L57.417 65.8278Z" fill="#DFD3C7"/>
<path d="M47.3742 64.9076L47.5569 64.6789C47.5205 64.6496 43.921 61.7178 44.0144 59.0889C44.1082 56.4511 45.7018 55.1084 45.718 55.095C45.734 55.0818 45.7471 55.0653 45.7562 55.0467C45.7654 55.028 45.7705 55.0076 45.7712 54.9868C45.7718 54.966 45.7681 54.9453 45.7602 54.9261C45.7523 54.9069 45.7404 54.8896 45.7253 54.8753C45.6937 54.846 42.5776 51.8771 43.1432 49.5009C43.727 47.0493 45.7426 41.3991 45.7627 41.3424L45.488 41.2434C45.4676 41.3002 43.4465 46.9657 42.8593 49.4321C42.3118 51.7319 44.8296 54.398 45.412 54.9778C45.0179 55.3587 43.8065 56.7123 43.7228 59.0779C43.6239 61.8545 47.2211 64.7841 47.3742 64.9076Z" fill="#DFD3C7"/>
<path d="M40.8451 40.3032L41.0718 40.1186C40.9814 40.0068 38.8434 37.3747 37.4264 36.6375L37.2921 36.8976C38.6553 37.6068 40.8234 40.2762 40.8451 40.3032Z" fill="#DFD3C7"/>
<path d="M57.7962 28.7221L57.9397 28.6954C57.5088 26.3548 56.9135 25.7232 56.3377 25.1123C56.1358 24.9075 55.9496 24.6877 55.7806 24.4547C54.5904 22.7555 55.4957 21.7028 55.5051 21.6924L55.3962 21.5948C55.3861 21.6061 54.4052 22.7454 55.6611 24.5393C55.8342 24.778 56.0249 25.0032 56.2318 25.2131C56.7928 25.8083 57.373 26.424 57.7962 28.7221Z" fill="#212121"/>
<path d="M43.291 36.439C41.252 36.4976 43.4552 33.4748 43.4552 33.4748C43.4552 33.4748 42.2032 31.5754 42.5988 31.4992C43.3448 31.3557 44.1873 32.7776 44.1873 32.7776C44.1873 32.7776 44.1322 36.4148 43.291 36.439Z" fill="#DF9F85"/>
<path d="M42.0556 31.797C42.0556 31.797 43.322 32.7334 42.5749 34.5173C42.3974 34.9411 40.5364 33.5411 40.5364 33.5411C40.5364 33.5411 41.2181 32.1032 42.0556 31.797Z" fill="#DF9F85"/>
<path d="M41.7321 32.2791L42.986 33.7493L42.8751 33.8446L41.6212 32.3744L41.7321 32.2791Z" fill="#212121"/>
<path d="M41.0605 32.9019L42.6263 34.4649L42.5234 34.5688L40.9576 33.0058L41.0605 32.9019Z" fill="#212121"/>
<path d="M61.4014 38.8856C61.4014 38.8856 69.9616 32.8906 71.4041 28.8425C72.8465 24.7944 66.9631 13.3263 64.4651 13.1536C62.0671 12.9885 60.8375 12.0488 60.7076 10.3521C60.5964 8.90027 65.2051 5.38117 67.4248 10.6012C68.297 12.652 75.6946 17.5129 77.7699 24.3942C80.7953 34.4247 68.1444 45.3067 68.1444 45.3067C68.1444 45.3067 62.2087 38.8067 61.4014 38.8856Z" fill="#DF9F85"/>
<path d="M65.838 8.88625C65.838 8.88625 66.0399 11.0736 65.2056 11.1951C64.853 11.2463 64.5245 8.47037 64.5245 8.47037C64.5245 8.47037 65.0645 11.054 64.3785 11.1896C63.6975 11.3241 62.9678 8.51929 62.9678 8.51929C62.9678 8.51929 63.8188 10.5619 63.471 11.1151C63.1232 11.6682 61.4595 8.95949 61.4595 8.95949" fill="#DF9F85"/>
<path d="M65.1961 11.2697C65.2028 11.2698 65.2095 11.2692 65.2161 11.2681C66.1086 11.1383 65.9191 8.97221 65.9107 8.88036L65.7647 8.89384C65.819 9.48302 65.8222 11.0326 65.1945 11.1235C65.0856 11.101 64.92 10.5064 64.7728 9.67331C64.7356 9.2651 64.6764 8.85922 64.5954 8.45745C64.5915 8.43897 64.5807 8.42269 64.5652 8.412C64.5497 8.40131 64.5307 8.39705 64.5122 8.40009C64.4936 8.40313 64.4769 8.41325 64.4656 8.42833C64.4543 8.44341 64.4492 8.46229 64.4515 8.48103C64.4652 8.59705 64.5295 9.12558 64.6282 9.69162C64.6743 10.2153 64.6729 10.7649 64.5114 11.01C64.4958 11.0374 64.4746 11.0612 64.4494 11.08C64.4241 11.0987 64.3953 11.1121 64.3646 11.1192C64.1039 11.17 63.7891 10.6306 63.5181 9.96189C63.3925 9.46119 63.2312 8.97021 63.0354 8.49275C63.0283 8.47569 63.015 8.46197 62.9982 8.45436C62.9814 8.44675 62.9623 8.44581 62.9448 8.45173C62.9273 8.45765 62.9128 8.46999 62.904 8.48627C62.8952 8.50255 62.8929 8.52156 62.8975 8.53948C63.0294 9.04092 63.1908 9.53404 63.381 10.0162C63.4869 10.4683 63.5304 10.8856 63.4102 11.0777C63.404 11.0901 63.3945 11.1005 63.3826 11.1077C63.3707 11.1148 63.3571 11.1185 63.3432 11.1181C62.9981 11.1162 62.0434 9.77043 61.5227 8.92196L61.3984 8.99887C61.5406 9.23047 62.8032 11.2617 63.3425 11.2646C63.3811 11.2649 63.419 11.255 63.4526 11.2359C63.4861 11.2168 63.5141 11.1892 63.5337 11.1559C63.624 10.9621 63.653 10.7452 63.6169 10.5344C63.8504 10.9851 64.1191 11.3175 64.3937 11.2633C64.4433 11.2526 64.4903 11.2318 64.5317 11.2022C64.573 11.1726 64.6078 11.1347 64.634 11.091C64.7346 10.9031 64.7885 10.6935 64.7911 10.4802C64.8823 10.8502 64.9868 11.1477 65.0989 11.2339C65.1264 11.2564 65.1606 11.269 65.1961 11.2697Z" fill="#212121"/>
<path d="M68.3359 10.7848C68.3359 10.7848 64.8078 13.3304 64.6035 14.2825C64.3991 15.2347 70.4824 24.7051 69.8256 27.5613C69.1688 30.4175 60.5111 38.2147 60.5111 38.2147C60.5111 38.2147 66.9537 45.8227 67.7565 45.9833C68.5592 46.1438 78.9947 33.9645 79.1388 28.7087C79.331 21.671 68.7476 10.48 68.3359 10.7848Z" fill="#F7E9DB"/>
<path d="M64.4653 12.1414C64.4653 12.1414 63.9114 9.87299 61.7922 10.4455L64.4653 12.1414Z" fill="#DF9F85"/>
<path d="M64.3949 12.1588L64.5366 12.1239C64.5258 12.08 64.2638 11.0408 63.418 10.5391C62.951 10.2616 62.3964 10.2065 61.7736 10.3747L61.8116 10.5162C62.3954 10.3584 62.9104 10.4084 63.343 10.6647C64.1355 11.1341 64.3923 12.1487 64.3949 12.1588Z" fill="#212121"/>
<path d="M60.9494 9.60868C60.9494 9.60868 63.9115 8.66075 63.8152 8.7816C63.7189 8.90246 63.743 10.2481 61.7923 10.4454" fill="#DF9F85"/>
<path d="M61.7997 10.5184C63.4941 10.3468 63.7464 9.32347 63.8414 8.93836C63.8493 8.89995 63.8601 8.86219 63.8737 8.82541C63.8836 8.81225 63.8892 8.79637 63.8898 8.77989C63.8905 8.76342 63.886 8.74715 63.8772 8.73327C63.8388 8.67746 63.7991 8.62004 60.9274 9.53896L60.9711 9.67856C61.8835 9.38661 63.3199 8.9426 63.7105 8.85823C63.7069 8.872 63.7032 8.88752 63.6993 8.9032C63.611 9.26092 63.3767 10.2115 61.7847 10.3725L61.7997 10.5184Z" fill="#212121"/>
<path d="M65.1176 15.643C67.2676 13.8819 69.8785 12.1895 69.9048 12.1727L69.7467 11.9263C69.7203 11.9434 67.0955 13.6446 64.9331 15.4161L65.1176 15.643Z" fill="#FFFCF6"/>
<path d="M39.7685 18.9089L40.0156 19.0644L34.4866 27.9163L34.2395 27.7608L39.7685 18.9089Z" fill="#DFD3C7"/>
<path d="M35.2219 19.1064L35.3898 18.8668C30.0697 15.1083 30.086 12.6724 31.458 7.16453C32.8385 1.62286 29.0602 0.456224 29.0218 0.445091L28.9405 0.726496C29.0857 0.769271 32.4849 1.83439 31.1748 7.09348C30.4451 10.0222 30.1402 11.9431 30.6161 13.7035C31.1194 15.5661 32.4969 17.1813 35.2219 19.1064Z" fill="#F2994A"/>
<path d="M13.8491 26.0183C13.8532 25.9946 14.2671 23.6445 16.0676 22.6607C17.2441 22.0179 18.7544 22.0866 20.5559 22.8646C23.3692 24.0796 24.8115 23.5015 26.0845 22.9913C27.5792 22.3922 28.8704 21.8751 32.062 24.041L32.2257 23.7988C28.9053 21.5458 27.4823 22.1162 25.9764 22.7197C24.6968 23.2324 23.3733 23.7629 20.6715 22.5959C18.7823 21.78 17.1856 21.7157 15.9263 22.4055C14.0009 23.4592 13.5787 25.8689 13.5619 25.971L13.8491 26.0183Z" fill="#F2994A"/>
<path d="M34.3352 20.9995L34.3805 20.7102C34.3355 20.703 29.856 19.9439 27.5542 15.4625C26.0925 12.6167 24.5161 12.4449 22.6907 12.2468C21.0343 12.0668 19.1567 11.8626 16.9244 9.50749C13.1791 5.55625 16.4471 0.71817 16.4804 0.669682L16.2408 0.502686C16.2059 0.553078 12.8057 5.58731 16.7128 9.70949C19.0188 12.1427 20.953 12.353 22.6591 12.5385C24.4726 12.7357 25.9049 12.8914 27.2947 15.597C29.6663 20.2142 34.2887 20.9923 34.3352 20.9995Z" fill="#F2994A"/>
</svg>
