<svg width="20" height="15" viewBox="0 0 20 15" fill="none" xmlns="http://www.w3.org/2000/svg">
<path d="M6.46 0.0799968L9.04 1.76L6.04 6.32C6.88 6.48 7.58 6.9 8.14 7.58C8.74 8.26 9.04 9.08 9.04 10.04C9.04 11.16 8.64 12.12 7.84 12.92C7.08 13.72 6.12 14.12 4.96 14.12C3.8 14.08 2.82 13.66 2.02 12.86C1.26 12.06 0.88 11.08 0.88 9.92C0.88 9.36 0.98 8.78 1.18 8.18C1.38 7.58 1.7 6.98 2.14 6.38L6.46 0.0799968ZM17.02 0.0799968L19.6 1.76L16.6 6.32C17.44 6.48 18.14 6.9 18.7 7.58C19.3 8.26 19.6 9.08 19.6 10.04C19.6 11.16 19.2 12.12 18.4 12.92C17.64 13.72 16.68 14.12 15.52 14.12C14.36 14.08 13.38 13.66 12.58 12.86C11.82 12.06 11.44 11.08 11.44 9.92C11.44 9.36 11.54 8.78 11.74 8.18C11.94 7.58 12.26 6.98 12.7 6.38L17.02 0.0799968Z" fill="#5AAA4E"/>
</svg>
