<svg width="112" height="70" viewBox="0 0 112 70" fill="none" xmlns="http://www.w3.org/2000/svg">
<path d="M2.23794 61.7207C2.23794 61.7207 -4.4713 42.3336 5.34377 30.7573C18.0035 15.8261 34.3633 28.3069 40.5019 27.9428C46.6405 27.5788 46.9863 13.2525 65.3277 11.5413C79.5095 10.2183 102.8 10.1139 97.8311 33.5206C94.0534 51.3163 115.072 42.0986 110.979 61.7581L2.23794 61.7207Z" fill="#F5F5F5"/>
<path d="M77.7267 47.7204C77.1189 51.613 73.1439 54.092 69.0667 54.092H60.9912L61.6228 31.4033C61.6228 31.4033 69.3278 28.9319 71.2629 31.2829C72.9584 33.3424 77.5561 41.4952 77.798 46.3206C77.8223 46.7884 77.7984 47.2575 77.7267 47.7204Z" fill="#EFCBAB"/>
<path d="M56.2897 33.8058C56.2897 33.8058 67.1835 28.2492 69.2469 31.8789C70.3425 33.8061 73.3575 41.495 73.58 46.3203C73.7963 51.0088 69.7316 54.0917 65.5502 54.0917H58.1239L56.2897 33.8058Z" fill="#C6916D"/>
<path d="M58.338 36.8875C58.2462 37.3598 57.3642 37.7979 56.0552 38.1857C55.8246 38.2542 55.5814 38.321 55.3256 38.3862C50.8709 39.5232 42.9803 40.1579 42.2282 39.8226C41.1888 39.3593 34.8102 16.7119 34.8102 16.7119C34.8102 16.7119 40.8991 16.4832 45.7346 16.3717C47.3889 16.3341 48.8962 16.3099 49.9632 16.313C50.0859 16.313 50.2085 16.3215 50.3301 16.3386C50.7919 16.4044 51.1346 16.5968 51.406 16.8887C52.1846 17.7248 52.3777 19.3762 53.0986 21.2016C53.8112 23.0065 54.6861 25.2589 55.5156 27.4944C55.7293 28.0705 55.9402 28.6454 56.1446 29.2117C56.2023 29.3715 56.2595 29.5304 56.3161 29.6884C57.542 33.1167 58.4862 36.1224 58.338 36.8875Z" fill="#EFCBAB"/>
<path d="M77.7268 47.7203C77.119 51.6129 73.139 54.1438 69.0617 54.1438L65.0632 54.1416C67.7047 52.3525 70.1355 46.7888 77.7268 47.7203Z" fill="#DDB492"/>
<path d="M48.3059 16.313C48.0571 16.8058 47.6312 17.3299 46.8909 17.7194C43.5873 19.4571 46.038 23.0383 46.038 23.0383C46.0616 23.0542 47.349 25.6112 47.349 25.6112C47.3447 25.4325 47.518 25.113 47.8152 24.7061C48.034 26.2346 48.3906 27.7955 48.8166 28.9131C48.707 29.467 48.517 30.1482 48.313 30.8547C48.2944 30.9187 48.2754 30.9834 48.2568 31.0486C48.0423 31.7863 47.8198 32.5403 47.6636 33.1965C47.4068 34.269 47.3274 35.0773 47.7514 35.1169C47.8037 35.1215 47.8563 35.1215 47.9087 35.1169C47.8821 35.491 47.9549 35.8849 48.1665 36.2932C48.7081 37.3395 50.6 37.8246 52.7057 38.036C55.7522 38.3432 55.9485 38.3041 57.1462 37.8082C58.5988 37.2029 58.5404 36.8977 58.0363 34.9834C57.8442 34.2565 57.5602 33.3372 57.3424 32.6754C56.9934 31.6046 56.6638 30.6643 56.3162 29.6887C56.1137 29.6554 55.8527 29.6126 55.5562 29.5624C55.4992 29.5075 55.452 29.4432 55.4167 29.3724C55.3194 29.1584 55.3559 28.6166 55.4473 27.9549C55.4677 27.8069 55.4906 27.6528 55.5158 27.4949C55.4898 27.4251 55.4637 27.3552 55.438 27.2853C55.3633 27.0844 55.2883 26.8838 55.2129 26.6834C55.1674 26.5618 55.1217 26.4404 55.0759 26.3191C54.5323 24.8753 54.0824 23.7152 53.551 22.3534C51.9865 18.3609 52.0859 16.5894 50.3302 16.3393L48.3059 16.313Z" fill="#E0B594"/>
<path d="M71.3676 50.6058C69.8088 52.7702 67.4176 54.1574 64.7542 54.1144L53.3039 54.1202L47.818 54.1229L53.9902 33.809C53.9902 33.809 69.6126 32.2557 71.5388 34.3268C72.4333 35.2884 72.9354 39.6429 73.2167 44.0324C73.3753 46.5074 72.6546 48.8212 71.3676 50.6058Z" fill="#D39E7A"/>
<path d="M71.3677 50.6287C69.8089 52.793 67.4254 54.186 64.7619 54.1431H53.304C54.6513 53.0128 58.8889 49.8055 63.4261 49.9573C66.8656 50.0723 69.5965 50.0231 71.3677 50.6287Z" fill="#C6916D"/>
<path d="M66.223 30.1456C66.0499 30.0716 64.7132 30.3144 64.3305 30.3861C63.1189 30.149 59.1375 29.3539 58.9437 29.1048C58.7149 28.8109 58.2157 19.8552 57.6438 19.7059C57.6438 19.7059 56.5189 19.0233 55.4313 20.3182C54.3438 21.6132 56.2043 30.8701 57.8158 31.3456C59.6059 31.8739 64.7769 31.261 64.7769 31.261C65.2018 31.406 65.9443 31.4876 66.3386 31.6189C66.859 31.7923 67.3215 31.6478 67.4372 31.4456C67.5528 31.2434 66.4254 30.2321 66.223 30.1456Z" fill="#F4A269"/>
<path d="M71.015 50.486C70.9646 51.0322 71.7255 51.1651 72.6069 51.2089C73.4883 51.2527 73.2217 51.4332 74.4297 51.6517C75.6377 51.8703 76.1216 51.5401 76.209 51.377C76.2868 51.2323 75.7253 51.006 75.1268 50.7503C75.0516 50.7183 74.9761 50.6854 74.9007 50.6525C74.2272 50.3564 73.8493 49.7529 73.3242 49.1933C72.8267 48.6632 72.3545 46.966 72.3545 46.966L70.7131 46.6157C70.7131 46.6157 71.174 48.1432 71.334 48.7955C71.4281 49.1791 71.2892 49.6079 71.1659 49.9343C71.0996 50.1119 71.0325 50.2935 71.015 50.486Z" fill="#FFB27D"/>
<path d="M72.6067 51.2091C73.4882 51.253 73.2215 51.4334 74.4295 51.6519C75.6374 51.8705 76.1214 51.5403 76.2088 51.3772C76.2865 51.2325 75.7251 51.0062 75.1266 50.7505L75.1173 50.7607C74.5206 50.9329 73.8884 50.9405 73.2877 50.7825C72.4887 50.5657 71.7161 50.0886 71.1655 49.9344C71.0992 50.112 71.0322 50.2938 71.0146 50.4862C70.9643 51.0324 71.7253 51.1653 72.6067 51.2091Z" fill="#F2C94C"/>
<path d="M54.6707 31.0365C54.6707 31.0365 65.5772 30.2162 67.6304 31.5112C69.6837 32.8062 72.9767 47.8899 72.9767 47.8899C72.9767 47.8899 72.7735 48.0527 72.3196 48.1017C71.8974 48.1474 70.9678 47.8993 70.9678 47.8993C70.9678 47.8993 66.2352 41.1504 65.9019 39.4502C65.5686 37.75 65.65 36.2328 64.8908 36.1921C64.1316 36.1515 54.6693 37.3418 53.238 34.822C51.8067 32.3022 52.9899 29.8078 52.9899 29.8078L54.6707 31.0365Z" fill="#333333"/>
<path d="M66.8417 52.2369C66.7913 52.7832 67.5522 52.9159 68.4335 52.9598C69.3149 53.0037 69.0485 53.1841 70.2563 53.4027C71.4641 53.6213 71.9481 53.291 72.0356 53.1278C72.1133 52.9832 71.5519 52.7569 70.9534 52.5012C70.8781 52.4693 70.8027 52.4363 70.7275 52.4034C70.054 52.1073 69.6761 51.5038 69.151 50.9442C68.6536 50.414 68.1814 48.7167 68.1814 48.7167L66.54 48.3666C66.54 48.3666 67.0009 49.8941 67.1609 50.5462C67.255 50.9298 67.1162 51.3586 66.9929 51.6851C66.9262 51.8628 66.8592 52.0445 66.8417 52.2369Z" fill="#FFB27D"/>
<path d="M68.4335 52.96C69.3149 53.0039 69.0485 53.1843 70.2563 53.4029C71.4641 53.6214 71.948 53.2912 72.0355 53.128C72.1133 52.9834 71.5518 52.7571 70.9533 52.5014L70.9441 52.5115C70.3474 52.6838 69.7151 52.6914 69.1145 52.5334C68.3155 52.3166 67.543 51.8395 66.9924 51.6853C66.9259 51.863 66.859 52.0447 66.8413 52.2371C66.7912 52.7834 67.5521 52.9161 68.4335 52.96Z" fill="#F2C94C"/>
<path d="M52.5345 31.7123C52.5345 31.7123 62.2232 32.1705 64.2245 33.5443C66.2259 34.918 68.9288 50.1185 68.9288 50.1185C68.9288 50.1185 68.7194 50.2732 68.2639 50.3047C67.8403 50.3339 66.9209 50.0498 66.9209 50.0498C66.9209 50.0498 62.4548 43.1219 62.1878 41.41C61.9208 39.6981 62.0613 38.1853 61.3044 38.1151C60.5476 38.045 51.0458 38.8664 49.7138 36.2927C48.3817 33.719 52.5345 31.7123 52.5345 31.7123Z" fill="#4F4F4F"/>
<path d="M57.0757 14.4686C57.0757 14.4606 57.0753 14.4518 57.075 14.4439V14.4431C57.0706 14.26 57.062 14.0784 57.0495 13.8983V13.898C57.0151 13.3738 56.9456 12.8524 56.8415 12.3375V12.3371C56.7851 12.0634 56.7199 11.8079 56.6474 11.5768C56.6361 11.5415 56.6248 11.5065 56.6136 11.4728C56.4377 10.9465 56.2224 10.5619 55.9868 10.4065C55.5572 10.1226 55.0232 10.0593 54.6473 10.0564C54.7504 9.96354 54.9424 9.93993 54.9424 9.93993C54.7125 9.89004 54.1786 10.0855 54.1786 10.0855C51.0306 8.62612 50.2058 13.3462 50.2 14.4555C50.1963 15.0564 50.1723 15.7049 49.8842 16.3134C49.8792 16.324 49.8741 16.3349 49.8686 16.3455C49.6224 16.8484 49.1916 17.323 48.4381 17.7193C45.1342 19.457 47.5852 23.0381 47.5852 23.0381C47.6092 23.0544 49.8896 25.9022 49.8896 25.9022C49.8842 25.6806 49.7316 25.0813 50.169 24.53C50.5212 24.0856 50.4098 23.4388 50.9327 22.8978C50.979 22.8501 51.026 22.8016 51.0734 22.7537C51.2078 22.6162 51.3462 22.4775 51.4871 22.3388C51.9704 21.8624 52.4846 21.3832 52.9959 20.9352C53.0916 20.8515 53.187 20.7688 53.2821 20.6872C53.442 20.5511 53.6006 20.4183 53.7574 20.2906C53.7614 20.2872 53.7654 20.284 53.7694 20.2808C53.8114 20.2465 53.8532 20.2127 53.8947 20.1792C54.0108 20.086 54.126 19.9954 54.2389 19.9081C54.3762 19.8025 54.5107 19.7021 54.6426 19.6067C54.699 19.5656 54.7551 19.5256 54.8101 19.487C54.9739 19.372 55.1316 19.2664 55.2817 19.1726C55.3308 19.142 55.3786 19.1129 55.4259 19.0849C55.437 19.0779 55.4474 19.0718 55.4583 19.0656H55.4586C55.4907 19.0463 55.5228 19.0281 55.5541 19.0102C55.6542 18.8797 55.743 18.7409 55.8196 18.5954C55.8492 18.5397 55.8778 18.4826 55.9055 18.4251C55.9267 18.3807 55.9474 18.3356 55.9671 18.2904C55.9925 18.2333 56.0169 18.1754 56.0399 18.1179L56.0403 18.1176C56.0985 17.9716 56.1502 17.8264 56.1954 17.6885C56.2013 17.6707 56.207 17.6525 56.2125 17.635C56.285 17.4079 56.3381 17.2045 56.3738 17.0571C56.4004 16.9465 56.4172 16.8674 56.4245 16.8332C56.4129 16.9108 56.4008 16.9854 56.3884 17.0578C56.3531 17.2645 56.3156 17.4516 56.2766 17.6208C56.2726 17.6368 56.269 17.6528 56.265 17.6685C56.2136 17.8906 56.1494 18.1096 56.0727 18.3243C56.0574 18.3672 56.0417 18.4084 56.026 18.4473C56.0249 18.4502 56.0239 18.4528 56.0228 18.4557C55.983 18.5547 55.9438 18.6407 55.9059 18.7158C55.8874 18.7515 55.8695 18.785 55.8516 18.816C55.8771 18.7955 55.9019 18.7745 55.9263 18.7527C55.9547 18.7271 55.9823 18.7006 56.0096 18.6733C56.0704 18.6117 56.1274 18.5465 56.1804 18.4782C56.2049 18.4473 56.2286 18.4149 56.2518 18.3822C56.2842 18.3362 56.3156 18.2886 56.3458 18.2391C56.4808 18.0158 56.592 17.7788 56.6776 17.5323C56.8833 16.9558 57.0028 16.2731 57.0523 15.5613C57.077 15.2012 57.0845 14.8336 57.0757 14.4686Z" fill="#333333"/>
<path d="M52.1272 17.9703C52.7276 17.9205 53.3311 17.9205 53.9316 17.9703C54.4693 18.0276 54.9964 18.1598 55.4976 18.363C56.3514 18.7197 56.2618 20.2304 54.4701 19.9507C52.6785 19.6709 52.0015 18.4184 52.1272 17.9703Z" fill="#FFB27D"/>
<path d="M55.422 19.0721C55.4325 19.0776 55.6776 20.3717 54.5044 20.3199C53.7343 20.286 52.0733 19.3548 52.2199 18.6958C52.2897 18.3825 52.8717 17.5698 52.9887 15.7148L53.1289 15.7523L55.4863 16.3841C55.4863 16.3841 55.3818 17.1317 55.3329 17.8395C55.2916 18.4335 55.2901 18.9995 55.422 19.0721Z" fill="#FFB27D"/>
<path d="M55.4862 16.384C55.4862 16.384 55.3817 17.1316 55.3328 17.8393C53.9986 17.7126 53.3733 16.4469 53.1288 15.752L55.4862 16.384Z" fill="#F4A269"/>
<path d="M52.8995 15.476C52.8995 15.476 52.2728 14.3232 52.1678 13.3662C52.0927 12.683 52.6039 10.2029 55.0969 10.7311C55.5991 10.8351 56.0715 11.0505 56.4793 11.3613C57.0012 11.7665 57.7368 12.6153 56.7092 14.7408L56.4309 15.4634L52.8995 15.476Z" fill="#333333"/>
<path d="M56.9621 15.023C56.7344 16.0473 56.3505 17.0789 55.8879 17.0842C55.8879 17.0842 55.7228 17.076 55.4694 17.0398C54.6134 16.9171 52.751 16.4759 52.8505 14.9561C52.9334 13.6933 52.8306 12.6868 53.2815 12.1318C53.5332 11.8214 53.9581 11.6524 54.6852 11.6589C56.7121 11.6768 57.0552 12.454 57.1723 13.1216C57.2235 13.4156 57.141 14.2168 56.9621 15.023Z" fill="#F4A269"/>
<path d="M55.4699 17.0399C54.6139 16.9172 52.7515 16.4759 52.851 14.9562C52.9339 13.6934 52.8311 12.6869 53.282 12.1319C53.778 12.0254 53.9911 13.4017 53.9911 13.4017C53.9911 13.4017 53.6044 16.1179 55.4699 17.0399Z" fill="#E5925A"/>
<path d="M56.1292 11.7071C56.1292 11.7071 55.1091 13.9592 53.7573 14.2121C52.4056 14.4651 51.8528 14.0708 51.8528 14.0708C51.8528 14.0708 52.9262 13.3295 53.2319 11.931C53.232 11.931 55.5494 10.5643 56.1292 11.7071Z" fill="#333333"/>
<path d="M55.902 11.88C55.902 11.88 56.5144 12.4389 56.6386 12.9506C56.7627 13.4623 56.7649 14.4992 57.0682 14.4842C57.0682 14.4842 57.8254 12.9577 57.1515 12.0208C56.4368 11.0273 55.902 11.88 55.902 11.88Z" fill="#333333"/>
<path d="M59.056 31.2009C58.7998 31.5072 57.9997 31.6011 57.1446 31.7417C56.4721 31.853 55.7651 31.9919 55.2625 32.287C54.1212 32.9565 50.3919 35.2201 49.299 35.1169C48.8753 35.077 48.9546 34.2685 49.2112 33.1961C49.5873 31.62 50.3452 29.4747 50.4488 28.3598C50.1451 27.127 49.0197 22.374 49.097 19.9024C49.173 17.4683 51.4125 18.0379 52.071 18.2585C52.1068 18.0732 52.1271 17.9701 52.1271 17.9701C52.1271 17.9701 52.8854 19.6237 54.3634 19.6237C55.8405 19.6237 55.4974 18.363 55.4974 18.363C55.4974 18.363 56.846 18.5214 57.1644 18.8639C57.4827 19.2064 58.291 20.6891 58.4512 21.0934C58.4512 21.0934 58.4838 21.6078 57.2095 21.8524C57.2095 21.8524 57.5201 23.2488 57.5567 24.1793C57.5715 24.5494 57.4345 25.3437 57.2823 26.2072C57.1518 26.9479 57.0103 27.7389 56.9444 28.3569C56.8936 28.8311 56.8871 29.2033 56.9639 29.3719C57.0627 29.5881 57.3814 29.8034 57.7446 30.0147C58.0418 30.1874 58.3687 30.3576 58.6289 30.5238C58.9994 30.7601 59.2345 30.9872 59.056 31.2009Z" fill="#27AE60"/>
<path d="M58.6291 30.5242C58.5437 30.5677 58.4518 30.6091 58.3534 30.6485C53.2978 32.6792 50.642 21.8734 50.642 21.8734C50.642 21.8734 54.6469 23.9891 57.2824 26.2076C57.1519 26.9483 57.0105 27.7393 56.9446 28.3573C56.8938 28.8315 56.8873 29.2037 56.9641 29.3723C57.0629 29.5885 57.3816 29.8038 57.7448 30.0151C58.042 30.1877 58.3689 30.358 58.6291 30.5242Z" fill="#219653"/>
<path d="M57.608 28.9158C57.5812 28.9973 56.2573 30.2912 55.9377 30.4058C55.5673 30.5386 54.8053 29.9308 54.3076 29.2197C54.0726 28.8841 53.8965 28.5258 53.8484 28.2116C53.7451 27.5389 53.8435 26.5808 53.9972 25.6109C54.24 24.0812 54.6217 22.5225 54.5721 22.0085C54.5148 21.4149 53.7385 20.1465 52.9377 19.1802H52.9372C52.7055 18.8625 52.5409 18.6491 52.5306 18.6362C52.5304 18.636 52.5303 18.6357 52.5303 18.6353L54.0582 18.9584C54.0582 18.9584 54.1188 18.9955 54.2197 19.0621C54.2929 19.1102 54.3876 19.1745 54.4957 19.2522C54.4961 19.2522 54.4963 19.2524 54.4966 19.2526C54.9595 19.5841 55.6704 20.1566 56.0209 20.7628C57.1183 22.6603 56.8015 25.4366 56.5632 26.5385C56.5482 26.6084 56.5336 26.6714 56.5193 26.7271C56.4487 26.9884 56.4398 27.2626 56.4934 27.528C56.6875 28.4425 57.6296 28.8513 57.608 28.9158Z" fill="#F2994A"/>
<path d="M57.6078 28.9163C57.581 28.9977 56.2571 30.2916 55.9376 30.4062C55.5672 30.539 54.8052 29.9312 54.3075 29.2202C54.0725 28.8846 53.8965 28.5262 53.8483 28.2121C53.7451 27.5393 53.8435 26.5812 53.9972 25.6113C54.24 24.0816 54.4047 22.945 54.433 22.3714C54.5041 20.929 53.5166 19.9734 52.9376 19.1807C53.2515 18.9865 54.4956 19.2526 54.4956 19.2526C54.496 19.2526 54.4963 19.2528 54.4965 19.253C54.9594 19.5845 55.6702 20.157 56.0207 20.7632C57.1181 22.6607 56.8014 25.437 56.5631 26.5389C56.548 26.6088 56.5334 26.6718 56.5192 26.7275C56.4486 26.9888 56.4397 27.263 56.4933 27.5284C56.6873 28.4429 57.6294 28.8517 57.6078 28.9163Z" fill="#F2C94C"/>
<path d="M56.5196 26.7274C56.449 26.9887 56.4401 27.2629 56.4937 27.5282C56.4937 27.5282 54.9442 27.8101 54.3079 29.22C54.0729 28.8844 53.8968 28.5261 53.8487 28.212C53.7454 27.5392 53.8438 26.5811 53.9975 25.6112C53.9975 25.6112 55.2006 26.7688 56.5196 26.5457C56.5347 26.5433 56.5493 26.5409 56.5635 26.5388C56.5485 26.6087 56.5338 26.6717 56.5196 26.7274Z" fill="#F2994A"/>
<path d="M49.7204 20.8713C49.7204 20.8713 53.8054 27.168 56.4058 26.9551C56.4058 26.9551 56.8644 26.9312 56.5635 25.8012C56.2626 24.6711 51.9577 18.5463 51.2146 18.4484C50.4714 18.3506 49.5863 19.619 49.7204 20.8713Z" fill="#FFB27D"/>
<path d="M53.0811 19.9932C53.0811 19.9932 52.5996 21.824 50.0886 21.7456C50.0886 21.7456 48.4004 20.2294 49.9283 18.5752C51.4562 16.9211 53.0811 19.9932 53.0811 19.9932Z" fill="#27AE60"/>
<path d="M52.2518 18.3252C52.1963 18.3301 51.9932 18.4654 51.7582 18.6348C51.3499 18.929 50.845 19.3272 50.845 19.3272C49.9778 19.341 49.2882 18.8039 49.2882 18.8039C49.4045 18.4821 49.7437 18.2509 50.1319 18.0863C50.8332 17.7889 51.6952 17.7097 51.6952 17.7097C51.6952 17.7097 52.4035 18.3114 52.2518 18.3252Z" fill="#F2994A"/>
<path d="M56.5195 17.5368C56.4276 17.8017 56.2931 18.1077 56.3455 18.2393C56.3655 18.2976 56.374 18.3592 56.3703 18.4207V18.4211C56.3626 18.677 56.2199 19.046 55.9019 19.1512C55.4937 19.2865 52.0478 18.9574 51.7583 18.0185C51.7583 18.0185 51.5954 17.7405 51.7945 17.359C51.8237 17.3037 51.8573 17.2509 51.8949 17.2009C52.0584 16.9831 52.1076 16.4422 52.1848 15.967C52.2703 15.4372 52.3902 14.9886 52.741 15.1584C53.4067 15.4811 53.5843 16.6252 54.8236 16.9133C56.0629 17.2013 56.5374 16.93 56.5915 17.1603C56.6114 17.2447 56.5728 17.384 56.5195 17.5368Z" fill="#F2C94C"/>
<path d="M52.656 17.3501C52.3986 17.4176 52.0014 17.1738 51.807 17.3501C51.8032 17.3536 51.7989 17.3566 51.7944 17.3591C51.8236 17.3038 51.8572 17.251 51.8948 17.201C52.0583 16.9832 52.1075 16.4423 52.1848 15.967C52.3323 16.2413 52.88 17.2912 52.656 17.3501Z" fill="#F2994A"/>
<path d="M56.3457 18.2394C56.3658 18.2976 56.3742 18.3593 56.3705 18.4208V18.4211C56.3705 18.4211 54.3169 17.7513 53.694 17.6077C53.7814 17.6228 56.0038 17.9957 56.5198 17.537C56.4279 17.8017 56.2933 18.1077 56.3457 18.2394Z" fill="#F2994A"/>
<path d="M51.7583 18.6346C51.35 18.9288 50.8451 19.327 50.8451 19.327C49.9778 19.3408 49.2882 18.8036 49.2882 18.8036C49.4045 18.4819 49.7437 18.2506 50.1319 18.0861C50.1319 18.0861 51.5735 18.078 51.7583 18.6346Z" fill="#F2C94C"/>
<path d="M57.2023 17.4171C57.2023 17.4171 57.5276 15.6096 57.2727 15.5544C57.0177 15.4993 55.535 15.8713 55.6045 16.3815C55.6741 16.8917 56.0567 17.6694 56.0567 17.6694C55.9008 23.011 54.2968 25.9786 56.4061 26.9549C56.7077 27.0946 57.6086 26.3879 57.6086 26.3879C58.5185 25.3528 57.2023 17.4171 57.2023 17.4171Z" fill="#FFB27D"/>
<path d="M61.879 47.924C61.2241 51.6993 57.6307 54.092 53.9472 54.092H46.5208L47.1018 31.4033C47.1018 31.4033 54.1873 28.9319 55.9671 31.2829C57.5263 33.3424 61.7544 41.4952 61.977 46.3206C62.0031 46.8571 61.9702 47.3948 61.879 47.924Z" fill="#EFCBAB"/>
<path d="M61.8791 47.9751C61.2242 51.7504 57.6308 54.1431 53.9473 54.1431H48.0045C50.7862 52.259 54.5317 47.053 61.8791 47.9751Z" fill="#DDB492"/>
<path d="M37.2275 54.1431C34.1524 54.1225 31.7384 53.1636 30.1748 50.5178C29.0358 48.5952 28.5298 46.0762 28.2753 43.8573C28.1288 42.5817 28.04 41.1697 28.0057 39.6113C27.986 38.7066 27.9845 37.7523 28.0014 36.7483C28.0276 35.1431 28.0992 33.4048 28.2162 31.5336C28.3793 28.9032 28.6288 26.0009 28.9583 22.8067C29.2588 19.8891 29.6059 17.8497 30.1101 17.385C30.8541 16.6997 32.4055 16.4238 33.4853 16.3135H33.4882C34.5474 16.2024 35.2804 16.1465 36.1194 16.6647C36.7815 17.0723 37.3037 17.7496 37.5576 18.5917C38.4192 21.4547 39.9579 26.5737 41.5592 31.9278C41.5676 31.9544 41.5756 31.9813 41.5836 32.0082C41.6753 32.3157 41.7675 32.6239 41.86 32.933C41.8691 32.9643 41.8786 32.9956 41.8884 33.0268C41.8927 33.0425 41.8979 33.0585 41.8979 33.0585C41.9078 33.0637 41.9193 33.0649 41.9301 33.0618C42.0073 33.0271 42.1009 32.9851 42.183 32.9493C42.1861 32.9475 42.1894 32.9459 42.1929 32.9446C44.4404 31.9496 47.6347 30.7536 50.0904 30.6035H50.0908C51.3639 30.5258 52.797 30.7068 53.4252 31.8215C54.7786 34.2111 57.552 41.8446 57.7584 46.3051C57.964 50.7513 54.3312 53.7783 50.3666 54.0756C50.1305 54.0925 49.9267 54.1432 49.7285 54.1432L37.2275 54.1431Z" fill="#C48E6A"/>
<path d="M38.4537 33.9807C38.4537 33.9807 34.642 18.4627 34.3668 17.1586C34.2444 16.5773 33.8666 16.3672 33.486 16.3131C34.1559 16.2446 34.6434 16.2395 34.6434 16.2395C35.9622 16.2395 37.1343 17.1827 37.5575 18.5847C38.4806 21.6426 40.2066 27.3191 41.9285 33.0624L38.4537 33.9807Z" fill="#F9DDBF"/>
<path d="M10.2224 56.6895H96.2194C96.2419 56.6895 96.2635 56.7075 96.2795 56.7397C96.2954 56.7718 96.3044 56.8154 96.3044 56.8609V56.9789C96.3044 57.0244 96.2954 57.068 96.2795 57.1001C96.2635 57.1322 96.2419 57.1503 96.2194 57.1503H10.2223C10.1998 57.1503 10.1782 57.1322 10.1622 57.1001C10.1463 57.068 10.1373 57.0244 10.1373 56.9789V56.8609C10.1373 56.8154 10.1463 56.7718 10.1622 56.7397C10.1782 56.7075 10.1998 56.6895 10.2224 56.6895V56.6895Z" fill="#BDBDBD"/>
<path d="M43.4633 45.5054H40.2735C40.2902 45.501 40.3051 45.4914 40.3159 45.478C40.3268 45.4646 40.3331 45.448 40.3339 45.4308C40.3332 45.4146 40.3277 45.3991 40.318 45.3861C40.3083 45.3732 40.295 45.3635 40.2796 45.3583C40.9898 45.3336 41.5619 44.8157 41.5619 44.1854V40.5325C41.5619 40.5237 41.5616 40.5147 41.5616 40.5056H35.6142C35.6142 40.5147 35.6138 40.5237 35.6138 40.5325V41.2819H35.0872C34.5038 41.2819 34.0293 41.6993 34.0293 42.2124V43.1681C34.0293 43.6812 34.5038 44.0983 35.0872 44.0983H35.6138V44.1853C35.6138 44.7355 36.0501 45.2006 36.6335 45.3258C36.7068 45.3416 36.7811 45.3518 36.856 45.3564C36.8389 45.36 36.8236 45.3693 36.8126 45.3828C36.8016 45.3964 36.7955 45.4132 36.7955 45.4307C36.7955 45.4481 36.8014 45.465 36.8124 45.4786C36.8233 45.4922 36.8386 45.5016 36.8556 45.5052H32.11C32.31 45.5038 32.473 45.2814 32.473 45.0099V43.8901C32.473 43.6987 32.391 43.5309 32.2723 43.449C32.231 43.4176 32.1964 43.3782 32.1705 43.3332C32.1446 43.2882 32.128 43.2385 32.1215 43.187C32.1353 43.1854 32.1481 43.179 32.1576 43.1689C32.1671 43.1587 32.1727 43.1455 32.1734 43.1317V42.6109C32.1722 42.595 32.1648 42.5803 32.1528 42.5698C32.1408 42.5593 32.1252 42.554 32.1093 42.5549H31.4582C31.4423 42.554 31.4267 42.5593 31.4147 42.5698C31.4027 42.5803 31.3953 42.595 31.394 42.6109V43.1317C31.395 43.146 31.401 43.1595 31.4111 43.1697C31.4213 43.1799 31.4347 43.1861 31.4491 43.1872C31.4352 43.2964 31.3842 43.3932 31.3085 43.4405C31.1826 43.5182 31.0947 43.6912 31.0947 43.8899V45.0097C31.0947 45.2812 31.2579 45.5036 31.4574 45.505H28.6398C28.5966 45.505 28.5537 45.5119 28.5127 45.5254C28.6074 46.0732 28.7155 46.5913 28.8372 47.0798H32.1949L31.6875 49.5046C31.6864 49.5105 31.6849 49.5156 31.6838 49.5206L31.1896 51.8829C31.2316 51.9277 31.2738 51.9715 31.3163 52.0143C31.3904 52.0889 31.4653 52.1609 31.5417 52.2312L32.6769 48.4522L32.6773 48.4514L33.0895 47.0798H39.5311L39.9433 48.4514L39.9437 48.4522L40.2926 49.6143V49.6151L41.6411 54.1037C41.7189 54.1026 41.7955 54.1019 41.8724 54.1008C41.88 54.1008 41.8877 54.1004 41.895 54.1004L40.9368 49.5209C40.9358 49.5158 40.9343 49.5107 40.9331 49.5049L40.7026 48.4029L40.4255 47.0801H43.4631C43.6638 47.0801 43.8281 46.9353 43.8281 46.7587V45.8261C43.8282 45.6495 43.6639 45.5054 43.4633 45.5054ZM35.6138 43.7218H35.0872C34.7401 43.7218 34.4579 43.4736 34.4579 43.1682V42.2125C34.4579 41.9072 34.7401 41.659 35.0872 41.659H35.6138V43.7218Z" fill="#B58362"/>
<path d="M96.2171 49.9215C96.2171 49.9215 97.1144 50.7527 96.9393 51.3432C96.7641 51.9337 95.9541 52.3274 95.8449 53.0492C95.7357 53.7709 95.2978 54.1646 94.9038 54.1646H93.0256C93.0256 54.1646 92.7356 53.6567 93.4359 53.5036C94.1363 53.3505 94.4004 52.5023 94.3566 51.715C94.3129 50.9276 94.4223 49.8778 94.4223 49.8778L95.9106 49.5278L96.2171 49.9215Z" fill="#828282"/>
<path d="M85.033 54.1342C85.0247 54.1382 85.0162 54.1418 85.0075 54.1448H79.9524C79.9998 53.965 80.165 53.6375 80.7434 53.5436C81.5278 53.4162 82.8873 52.961 83.1907 51.9579C83.2001 51.926 83.2089 51.8928 83.2166 51.8594C83.4573 50.788 85.2083 52.1876 85.2083 52.1876C85.2083 52.1876 85.2137 52.2302 85.221 52.303C85.2617 52.696 85.3655 53.968 85.033 54.1342Z" fill="#828282"/>
<path d="M80.9517 25.4694C80.9517 25.4694 81.2176 28.7849 81.5301 32.7702C81.955 38.1841 82.4658 44.8341 82.5164 46.0938C82.6037 48.2814 82.9543 51.7806 82.9543 51.7806C82.9543 51.7806 83.7855 52.6119 85.4494 52.2617C85.4494 52.2617 86.932 47.2665 87.3555 41.9812C87.3621 41.8946 87.3686 41.8072 87.3752 41.72C87.7692 36.3397 88.3818 25.0101 88.3818 25.0101L80.9517 25.4694Z" fill="#333333"/>
<path d="M80.9517 25.4694C80.9517 25.4694 81.2176 28.7849 81.5301 32.7703L87.3555 41.9813C87.3621 41.8947 87.3686 41.8073 87.3752 41.7201C87.7692 36.3398 88.3818 25.0101 88.3818 25.0101L80.9517 25.4694Z" fill="#262626"/>
<path d="M82.166 25.8632C82.166 25.8632 86.9592 37.8706 90.1108 43.5134C93.2625 49.1563 94.2474 50.731 94.2474 50.731C94.2474 50.731 96.053 50.0093 96.2172 49.5171C96.2172 49.5171 95.012 38.6233 92.9014 35.9677C91.7088 34.4672 90.3079 29.964 90.2422 28.3892C90.1766 26.8145 89.8154 23.6979 89.8154 23.6979L82.166 25.8632Z" fill="#4F4F4F"/>
<path d="M72.7596 24.2014C72.7596 24.2014 71.0683 25.0127 70.8405 25.2209C70.6128 25.4291 70.0509 26.4513 70.0941 26.5284C70.1373 26.6055 70.2214 26.6292 70.3747 26.5232C70.5281 26.4173 70.9583 25.9746 70.9741 26.0569C70.9899 26.1393 69.826 27.508 70.0317 27.7977C70.2374 28.0873 71.4046 28.0017 72.071 27.5281C72.7374 27.0545 73.4025 25.3136 73.5027 25.2187C74.3524 24.4122 72.7596 24.2014 72.7596 24.2014Z" fill="#FFB27D"/>
<path d="M72.6833 25.0708C72.2137 24.6626 72.2014 24.5592 72.2014 24.5592C72.2014 24.5592 75.2007 19.3764 75.4605 18.8779C75.7204 18.3794 77.3279 10.5957 77.3279 10.5957L82.8851 8.98562C82.8851 8.98562 78.9707 19.1004 78.2871 20.3503C77.1575 22.416 73.4697 25.4561 73.4697 25.4561C73.1789 25.397 72.9081 25.2644 72.6833 25.0708Z" fill="#219653"/>
<path d="M80.0547 6.96004C80.0547 6.96004 78.0989 10.3986 76.1873 10.8475C76.1873 10.8475 76.2669 9.69278 76.7324 8.90229C76.5418 8.67764 76.3744 8.47127 76.2295 8.28659C75.7483 7.67041 75.5195 7.29325 75.5195 7.29325L76.1683 5.55034L76.6084 4.3678C76.802 4.72136 77.0326 5.05338 77.2964 5.35826C78.5492 6.79765 80.0547 6.96004 80.0547 6.96004Z" fill="#FFB27D"/>
<path d="M77.2964 5.35824C77.2964 5.35824 77.5297 7.08137 76.2295 8.28656C75.7483 7.67039 75.5195 7.29322 75.5195 7.29322L76.1683 5.55032C76.8639 5.33851 77.2964 5.35824 77.2964 5.35824Z" fill="#ED975D"/>
<path d="M75.0041 7.54722C75.0041 7.54722 77.9262 6.40887 77.1887 4.60123C76.4511 2.79359 76.3318 1.42948 74.435 2.07986C72.5381 2.73023 72.4593 3.56673 72.5586 4.22987C72.6579 4.89302 74.225 7.79667 75.0041 7.54722Z" fill="#FFB27D"/>
<path d="M90.0986 24.6056C88.9202 26.2988 80.1064 28.5615 80.2119 27.3898C80.2815 26.6207 80.2811 25.8469 80.2107 25.0779C80.1885 24.8265 80.1573 24.5603 80.1171 24.2793C79.8924 22.7381 79.3612 20.7584 78.1746 18.4653C78.0857 18.2934 77.9933 18.12 77.8973 17.9449C77.4134 17.0666 77.0047 16.1489 76.6757 15.2016C76.0648 13.4383 75.818 11.7509 76.1269 10.6482C76.1277 10.643 76.1293 10.6379 76.1315 10.633C77.9734 9.7818 78.6872 6.48051 78.6872 6.48051C78.6872 6.48051 84.9721 7.60776 88.4932 15.9791C88.4932 15.9791 88.8313 16.8982 89.2174 18.1459C89.6867 19.6591 90.2273 21.654 90.3209 23.0771C90.3666 23.7531 90.3103 24.3003 90.0986 24.6056Z" fill="#27AE60"/>
<path d="M77.6081 1.24376C77.6286 1.20335 77.688 1.16016 77.8331 1.11582C77.7375 1.08812 77.6364 1.08438 77.5389 1.1049C77.457 0.904864 77.2575 0.564188 76.8834 0.561523C76.9495 0.581717 77.0102 0.616507 77.061 0.663319C77.1118 0.71013 77.1515 0.767765 77.177 0.831955C76.6644 0.507304 75.7144 0.41304 73.3427 1.20246C70.217 2.24288 71.7786 4.05614 72.2523 4.20156C72.7261 4.34697 73.5982 3.41395 74.3826 3.28656C75.1671 3.15917 75.5913 4.25111 75.8904 4.34168C76.1894 4.43224 76.0195 4.18379 76.3325 3.93494C76.6456 3.68608 76.8256 4.2715 76.8187 4.68254C76.8119 5.09357 77.4224 5.48339 77.4224 5.48339L77.7805 4.82695C78.1386 4.17051 78.0412 1.78744 77.699 1.35857C77.6691 1.32078 77.639 1.28229 77.6081 1.24376Z" fill="#333333"/>
<path d="M90.3209 23.0771C82.7371 20.791 81.5306 11.7555 81.5306 11.7555C81.5306 11.7555 85.8485 15.0531 89.2174 18.1459C89.6866 19.6591 90.2273 21.654 90.3209 23.0771Z" fill="#219653"/>
<path d="M92.4 23.3738C92.4 23.3738 92.2289 24.8075 92.2704 25.0415C92.3118 25.2754 92.5849 25.9714 92.6529 25.9752C92.7209 25.9791 92.927 25.9874 92.9216 25.844C92.9162 25.7007 92.8228 25.5667 92.8828 25.5904C92.9428 25.614 92.9602 26.1553 93.2336 26.1413C93.5071 26.1273 94.3122 25.8239 94.2795 25.1954C94.2468 24.5669 93.3892 23.4156 93.3687 23.3112C93.1953 22.4263 92.4 23.3738 92.4 23.3738Z" fill="#FFB27D"/>
<path d="M92.8546 23.6156C92.2529 23.8911 92.0295 23.6101 92.0295 23.6101C92.0295 23.6101 88.5249 17.7619 88.1556 17.2915C87.7864 16.8212 81.3167 14.0468 81.3167 14.0468C81.3167 14.0468 78.6837 13.041 78.5797 11.445C78.4893 10.058 79.2773 9.20589 80.1402 8.69197C80.6441 8.39428 81.2261 8.25522 81.8102 8.29293C82.3944 8.33064 82.9536 8.54337 83.415 8.90338C85.5371 10.5503 89.7444 13.8634 90.4215 14.762C91.9285 16.7616 93.5988 23.0293 93.5988 23.0293C93.3991 23.2793 93.1444 23.4799 92.8546 23.6156Z" fill="#27AE60"/>
<path d="M75.4608 31.7937C75.2291 32.001 74.9248 32.1082 74.6142 32.092C74.3036 32.0758 74.0121 31.9375 73.8033 31.7072L66.7382 23.8694C66.5307 23.6379 66.4234 23.3337 66.4396 23.0234C66.4558 22.713 66.5942 22.4217 66.8247 22.213C67.0564 22.0057 67.3607 21.8985 67.6713 21.9147C67.9818 21.9309 68.2733 22.0692 68.4822 22.2995L75.5473 30.1373C75.7548 30.3688 75.8621 30.673 75.8459 30.9833C75.8297 31.2937 75.6913 31.585 75.4608 31.7937Z" fill="#E9F3FE"/>
<path d="M67.4304 22.4599C67.4723 22.5064 67.494 22.5676 67.4908 22.6301C67.4875 22.6926 67.4596 22.7513 67.413 22.7931C67.3665 22.835 67.3052 22.8567 67.2427 22.8535C67.1802 22.8502 67.1215 22.8223 67.0796 22.7758L66.4187 22.0427L65.3715 20.8809C65.3298 20.8343 65.3082 20.7732 65.3115 20.7108C65.3147 20.6484 65.3425 20.5898 65.3888 20.5478L65.3901 20.5467C65.4368 20.5056 65.4978 20.4844 65.56 20.4879C65.6222 20.4914 65.6805 20.5191 65.7223 20.5652L66.7718 21.7295L67.4304 22.4599Z" fill="#E9F3FE"/>
<path d="M66.7745 21.7262L66.4215 22.0396L65.3742 20.8778C65.3326 20.8312 65.311 20.7701 65.3143 20.7077C65.3175 20.6453 65.3453 20.5867 65.3916 20.5447L65.3928 20.5437C65.4395 20.5025 65.5005 20.4813 65.5627 20.4848C65.6249 20.4883 65.6832 20.5161 65.725 20.5622L66.7745 21.7262Z" fill="#EB5757"/>
<path d="M68.0898 23.1888L67.7122 23.524L67.7317 23.546L68.1093 23.2108L68.0898 23.1888Z" fill="#35488B"/>
<path d="M68.21 23.3247L67.8326 23.6599L67.8521 23.6818L68.2295 23.3467L68.21 23.3247Z" fill="#35488B"/>
<path d="M68.3305 23.4603L67.9531 23.7955L67.9727 23.8175L68.35 23.4823L68.3305 23.4603Z" fill="#35488B"/>
<path d="M68.4513 23.5954L68.0739 23.9304L68.0934 23.9524L68.4708 23.6174L68.4513 23.5954Z" fill="#35488B"/>
<path d="M68.5715 23.731L68.1941 24.066L68.2136 24.088L68.591 23.7529L68.5715 23.731Z" fill="#35488B"/>
<path d="M69.021 23.5849L67.9956 24.4945L68.0358 24.5398L69.0612 23.6301L69.021 23.5849Z" fill="#35488B"/>
<path d="M68.838 24.0315L68.4604 24.3666L68.4799 24.3886L68.8575 24.0534L68.838 24.0315Z" fill="#35488B"/>
<path d="M68.9583 24.167L68.5809 24.5023L68.6005 24.5243L68.9779 24.189L68.9583 24.167Z" fill="#35488B"/>
<path d="M69.0788 24.3027L68.7014 24.6379L68.7209 24.6598L69.0983 24.3246L69.0788 24.3027Z" fill="#35488B"/>
<path d="M69.1996 24.4377L68.8221 24.7728L68.8417 24.7948L69.2192 24.4596L69.1996 24.4377Z" fill="#35488B"/>
<path d="M69.3199 24.5732L68.9424 24.9083L68.9619 24.9303L69.3395 24.5952L69.3199 24.5732Z" fill="#35488B"/>
<path d="M69.6805 24.979L69.303 25.3141L69.3225 25.3361L69.7 25.0009L69.6805 24.979Z" fill="#35488B"/>
<path d="M69.8008 25.1148L69.4235 25.45L69.443 25.472L69.8203 25.1368L69.8008 25.1148Z" fill="#35488B"/>
<path d="M69.9213 25.2504L69.5439 25.5857L69.5635 25.6077L69.9408 25.2724L69.9213 25.2504Z" fill="#35488B"/>
<path d="M70.0422 25.3856L69.6644 25.7206L69.684 25.7426L70.0618 25.4076L70.0422 25.3856Z" fill="#35488B"/>
<path d="M70.1626 25.5211L69.7849 25.8561L69.8044 25.8781L70.1821 25.5431L70.1626 25.5211Z" fill="#35488B"/>
<path d="M70.6116 25.3743L69.5868 26.2842L69.627 26.3294L70.6519 25.4196L70.6116 25.3743Z" fill="#35488B"/>
<path d="M70.5291 25.9334L70.1516 26.2685L70.1711 26.2905L70.5486 25.9554L70.5291 25.9334Z" fill="#35488B"/>
<path d="M70.6495 26.0692L70.2721 26.4044L70.2916 26.4263L70.669 26.0911L70.6495 26.0692Z" fill="#35488B"/>
<path d="M70.7698 26.2048L70.3926 26.54L70.4121 26.562L70.7893 26.2267L70.7698 26.2048Z" fill="#35488B"/>
<path d="M70.8905 26.34L70.5128 26.675L70.5323 26.697L70.91 26.362L70.8905 26.34Z" fill="#35488B"/>
<path d="M71.011 26.4755L70.6335 26.8105L70.6531 26.8325L71.0305 26.4975L71.011 26.4755Z" fill="#35488B"/>
<path d="M71.4604 26.3293L70.4349 27.239L70.4752 27.2842L71.5006 26.3746L71.4604 26.3293Z" fill="#35488B"/>
<path d="M71.3661 26.8755L70.9888 27.2107L71.0083 27.2326L71.3856 26.8975L71.3661 26.8755Z" fill="#35488B"/>
<path d="M71.4867 27.0111L71.1093 27.3463L71.1288 27.3683L71.5062 27.033L71.4867 27.0111Z" fill="#35488B"/>
<path d="M71.6073 27.1467L71.2299 27.4819L71.2494 27.5039L71.6268 27.1687L71.6073 27.1467Z" fill="#35488B"/>
<path d="M71.7279 27.282L71.3505 27.6171L71.37 27.639L71.7474 27.3039L71.7279 27.282Z" fill="#35488B"/>
<path d="M71.8484 27.4177L71.4708 27.7527L71.4903 27.7747L71.8679 27.4396L71.8484 27.4177Z" fill="#35488B"/>
<path d="M72.2981 27.2714L71.2727 28.181L71.3129 28.2263L72.3383 27.3167L72.2981 27.2714Z" fill="#35488B"/>
<path d="M72.2245 27.841L71.8472 28.1762L71.8667 28.1982L72.2441 27.863L72.2245 27.841Z" fill="#35488B"/>
<path d="M72.3448 27.9769L71.9674 28.3121L71.9869 28.3341L72.3643 27.9988L72.3448 27.9769Z" fill="#35488B"/>
<path d="M72.4656 28.1124L72.0881 28.4476L72.1076 28.4695L72.4851 28.1344L72.4656 28.1124Z" fill="#35488B"/>
<path d="M72.5863 28.2476L72.2086 28.5826L72.2281 28.6046L72.6059 28.2696L72.5863 28.2476Z" fill="#35488B"/>
<path d="M72.7067 28.3831L72.329 28.7181L72.3485 28.7401L72.7262 28.4051L72.7067 28.3831Z" fill="#35488B"/>
<path d="M73.1556 28.2364L72.1307 29.1462L72.171 29.1915L73.1958 28.2817L73.1556 28.2364Z" fill="#35488B"/>
<path opacity="0.5" d="M75.427 31.8237C75.2515 31.9785 75.0218 32.0577 74.7881 32.0439C74.5544 32.0301 74.3356 31.9244 74.1796 31.75L66.7841 23.4302C66.6291 23.2548 66.5499 23.0253 66.5637 22.7917C66.5775 22.5581 66.6833 22.3395 66.8579 22.1836C67.0334 22.0288 67.2631 21.9496 67.4968 21.9634C67.7305 21.9772 67.9493 22.0829 68.1053 22.2574L75.5008 30.5772C75.6558 30.7526 75.735 30.9821 75.7212 31.2156C75.7074 31.4492 75.6016 31.6678 75.427 31.8237Z" fill="#AFCDFB"/>
<path d="M69.5939 24.6229C69.5858 24.6137 69.5805 24.6023 69.5788 24.5902C69.5772 24.578 69.5791 24.5656 69.5844 24.5546C69.5898 24.5435 69.5983 24.5343 69.6089 24.5281C69.6195 24.5219 69.6317 24.5189 69.6439 24.5197C69.6562 24.5204 69.668 24.5247 69.6777 24.5321C69.6875 24.5396 69.6949 24.5497 69.6989 24.5613C69.7029 24.5729 69.7034 24.5854 69.7003 24.5973C69.6972 24.6092 69.6907 24.6199 69.6815 24.6281C69.6754 24.6335 69.6683 24.6376 69.6606 24.6403C69.6529 24.643 69.6448 24.6441 69.6367 24.6436C69.6285 24.6432 69.6206 24.6411 69.6132 24.6375C69.6059 24.634 69.5993 24.629 69.5939 24.6229Z" fill="#D6716B"/>
<path d="M69.4286 24.7295L68.7935 25.2929L68.8337 25.3382L69.4688 24.7747L69.4286 24.7295Z" fill="#D6716B"/>
<path d="M67.3222 22.6057L73.1865 29.2028C73.1972 29.2162 73.2024 29.2331 73.2009 29.2501C73.1995 29.2672 73.1916 29.283 73.1788 29.2944C73.166 29.3057 73.1493 29.3117 73.1322 29.3111C73.1151 29.3105 73.0989 29.3034 73.0869 29.2912L67.2227 22.694C67.212 22.6807 67.2069 22.6638 67.2084 22.6468C67.2098 22.6298 67.2178 22.614 67.2305 22.6027C67.2433 22.5913 67.2599 22.5853 67.277 22.5859C67.294 22.5865 67.3102 22.5935 67.3222 22.6057Z" fill="#EB5757"/>
<path d="M67.3222 22.6057L69.1927 24.7099L69.0931 24.7984L67.2227 22.694C67.212 22.6807 67.2069 22.6638 67.2084 22.6468C67.2098 22.6298 67.2178 22.614 67.2305 22.6027C67.2433 22.5913 67.2599 22.5853 67.277 22.5859C67.294 22.5865 67.3102 22.5935 67.3222 22.6057Z" fill="#D6716B"/>
<path d="M73.7276 28.1388L71.9659 29.7026L72.8236 30.6674L74.5852 29.1036L73.7276 28.1388Z" fill="#EB5757"/>
<path d="M22.5365 42.0023C22.5365 42.0023 24.4859 39.7296 22.6568 38.2861C22.6568 38.2861 21.3207 37.4779 20.2313 37.5435C20.2313 37.5435 21.775 40.1302 21.2757 40.3875C20.7764 40.6448 19.7636 37.3813 19.7636 37.3813C19.7636 37.3813 16.7232 37.0866 15.7452 37.5565C15.7452 37.5565 18.3444 39.682 17.797 39.8086C17.2496 39.9351 14.4421 37.8489 14.4421 37.8489C14.4421 37.8489 11.6124 38.33 11.7633 40.0551C11.9142 41.7802 12.8892 42.3127 13.3177 42.267C13.7462 42.2212 16.2531 41.2648 16.3078 41.6156C16.3624 41.9664 14.8533 43.1133 13.7967 43.1669C13.7967 43.1669 15.7918 45.3656 17.1177 44.731C18.4436 44.0965 18.5568 43.0906 19.3833 42.7133C20.2099 42.3361 20.9154 42.337 20.5742 42.7218C20.233 43.1066 18.7373 43.4805 18.2644 44.316C17.7915 45.1515 17.3677 45.715 18.7395 45.5087C20.1113 45.3025 22.3411 44.2994 22.439 43.1508L22.5365 42.0023Z" fill="#27AE60"/>
<path d="M13.1534 40.1018C13.1534 40.1018 20.8393 39.8057 22.5366 42.0023C22.5366 42.0023 22.912 43.1258 24.0671 44.1489L24.2472 44.6393C24.2472 44.6393 22.9153 43.236 22.4387 43.1511C22.4387 43.1509 23.184 40.4296 13.1534 40.1018Z" fill="#219653"/>
<path d="M24.0674 44.1487C24.0674 44.1487 25.7172 45.3679 25.8317 47.5463L25.5323 47.5731C25.5323 47.5731 25.0055 45.3207 24.0531 44.4398C23.1008 43.5589 24.0674 44.1487 24.0674 44.1487Z" fill="#219653"/>
<path d="M29.3522 39.1445C29.3522 39.1445 26.2513 37.4092 27.6984 35.0541C27.6984 35.0541 28.856 33.6081 30.0964 33.2362C30.0964 33.2362 29.4349 36.7481 30.0964 36.8307C30.7579 36.9134 30.5512 32.8644 30.5512 32.8644C30.5512 32.8644 33.8174 31.2944 35.0992 31.4183C35.0992 31.4183 33.0733 34.8475 33.7348 34.7649C34.3962 34.6823 36.6703 31.2117 36.6703 31.2117C36.6703 31.2117 40.0192 30.592 40.5567 32.5752C41.0942 34.5583 40.2259 35.5499 39.7298 35.6739C39.2336 35.798 36.0501 35.7565 36.1328 36.1699C36.2155 36.5832 38.3654 37.2441 39.5644 36.8723C39.5644 36.8723 38.2413 40.1362 36.5049 39.971C34.7684 39.8057 34.2309 38.7315 33.156 38.6489C32.081 38.5663 31.2954 38.8554 31.8329 39.1448C32.3704 39.4342 34.1895 39.2396 35.0578 39.9772C35.9261 40.7148 36.6289 41.1694 35.0165 41.4999C33.404 41.8304 30.5099 41.6238 29.9311 40.3843L29.3522 39.1445Z" fill="#6FCF97"/>
<path d="M39.0264 33.1949C39.0264 33.1949 30.344 36.0043 29.3518 39.1444C29.3518 39.1444 29.3932 40.5491 28.5249 42.1607V42.7804C28.5249 42.7804 29.4345 40.6733 29.9307 40.3841C29.9306 40.3839 27.9874 37.657 39.0264 33.1949Z" fill="#27AE60"/>
<path d="M28.5251 42.1606C28.5251 42.1606 27.1861 44.1925 27.9494 46.6659L28.2939 46.5734C28.2939 46.5734 27.9595 43.8491 28.66 42.4789C29.3606 41.1088 28.5251 42.1606 28.5251 42.1606Z" fill="#27AE60"/>
<path d="M24.419 36.7511C24.419 36.7511 28.5065 34.4637 26.5991 31.3594C26.5991 31.3594 25.0732 29.4534 23.438 28.963C23.438 28.963 24.31 33.5923 23.438 33.7013C22.566 33.8102 22.8385 28.4729 22.8385 28.4729C22.8385 28.4729 18.533 26.4033 16.8435 26.5669C16.8435 26.5669 19.514 31.0872 18.642 30.9785C17.77 30.8697 14.7725 26.2947 14.7725 26.2947C14.7725 26.2947 10.3578 25.4778 9.6495 28.0919C8.94115 30.7061 10.0855 32.0133 10.7395 32.1766C11.3935 32.34 15.59 32.2855 15.481 32.8302C15.372 33.3748 12.538 34.2462 10.9575 33.756C10.9575 33.756 12.7015 38.0586 14.9907 37.8407C17.2798 37.6228 17.9881 36.2068 19.4053 36.0979C20.8225 35.989 21.8578 36.3702 21.1493 36.7514C20.4408 37.1327 18.0428 36.8764 16.8983 37.8487C15.7538 38.821 14.8273 39.4201 16.9528 39.8558C19.0783 40.2915 22.8933 40.0192 23.6562 38.3853L24.419 36.7511Z" fill="#6FCF97"/>
<path d="M11.666 28.9088C11.666 28.9088 23.1111 32.6122 24.4191 36.7512C24.4191 36.7512 24.3646 38.6029 25.509 40.7269V41.5438C25.509 41.5438 24.3101 38.7663 23.656 38.385C23.656 38.3852 26.2176 34.7905 11.666 28.9088Z" fill="#27AE60"/>
<path d="M25.509 40.7268C25.509 40.7268 27.2741 43.4052 26.2678 46.6656L25.8137 46.5437C25.8137 46.5437 26.2544 42.9526 25.331 41.1465C24.4076 39.3405 25.509 40.7268 25.509 40.7268Z" fill="#27AE60"/>
<path d="M16.5499 45.7347C16.5499 50.1537 20.1347 53.7358 24.5566 53.7358C25.4537 53.7369 26.3445 53.5869 27.1916 53.2922C30.3192 52.2035 32.5633 49.2309 32.5633 45.7347L16.5499 45.7347Z" fill="#F2994A"/>
<path d="M21.8203 45.7347C21.8203 48.7325 22.5388 51.7855 24.9808 53.1559C25.3867 53.3837 26.7459 53.137 27.1918 53.2921C30.3194 52.2035 32.5635 49.2309 32.5635 45.7347L21.8203 45.7347Z" fill="#F2C94C"/>
<path d="M24.5566 53.7359C24.8823 53.7766 23.2441 53.7359 23.5811 53.7359C28.0032 53.7359 31.5875 50.1533 31.5875 45.7345H29.5984C29.5984 49.8172 28.5093 53.2464 24.5566 53.7359Z" fill="#F5D77A"/>
<path d="M16.4392 54.1433H32.674C32.674 54.0136 32.6484 53.8852 32.5988 53.7654C32.5491 53.6456 32.4763 53.5368 32.3846 53.4451C32.2928 53.3534 32.1839 53.2807 32.064 53.231C31.9441 53.1814 31.8156 53.1559 31.6859 53.1559H17.4267C17.1648 53.156 16.9136 53.2601 16.7284 53.4452C16.5432 53.6304 16.4392 53.8815 16.4392 54.1433Z" fill="#F2994A"/>
<path d="M24.0458 54.1433H32.6739C32.6739 54.0136 32.6483 53.8852 32.5987 53.7654C32.549 53.6456 32.4762 53.5368 32.3845 53.4451C32.2927 53.3534 32.1838 53.2807 32.0639 53.231C31.944 53.1814 31.8155 53.1559 31.6858 53.1559H25.0334C24.7714 53.156 24.5202 53.26 24.335 53.4452C24.1498 53.6304 24.0457 53.8815 24.0458 54.1433Z" fill="#F2C94C"/>
<path d="M32.8267 45.7346H16.3678V45.9803H32.8267V45.7346Z" fill="#DB6A1F"/>
<path d="M46.5321 40.6662H45.3235C45.0117 40.6659 44.7127 40.5419 44.4922 40.3215C44.2716 40.1011 44.1476 39.8023 44.1472 39.4907V38.2831C44.1476 37.9715 44.2716 37.6727 44.4921 37.4523C44.7127 37.2319 45.0117 37.1079 45.3235 37.1076H46.5321C46.8439 37.1079 47.1429 37.2319 47.3634 37.4523C47.5839 37.6727 47.708 37.9715 47.7083 38.2831V39.4907C47.708 39.8023 47.5839 40.1011 47.3634 40.3215C47.1429 40.5419 46.8439 40.6659 46.5321 40.6662ZM45.3235 37.5839C45.138 37.5841 44.9602 37.6578 44.829 37.7889C44.6978 37.92 44.624 38.0977 44.6238 38.2831V39.4907C44.624 39.6761 44.6978 39.8538 44.829 39.9849C44.9602 40.116 45.138 40.1897 45.3235 40.19H46.5321C46.7176 40.1897 46.8954 40.116 47.0266 39.9849C47.1577 39.8538 47.2315 39.6761 47.2317 39.4907V38.2831C47.2315 38.0978 47.1577 37.92 47.0266 37.7889C46.8954 37.6578 46.7176 37.5841 46.5321 37.5839H45.3235Z" fill="#AFCDFB"/>
<path d="M52.5219 36.1606V40.7762C52.5207 41.1692 52.3639 41.5458 52.0858 41.8237C51.8077 42.1017 51.4308 42.2583 51.0375 42.2595H47.3932C47.2749 42.2595 47.1571 42.2454 47.0422 42.2173C46.7195 42.1378 46.4327 41.9528 46.2273 41.6917C46.0219 41.4305 45.9097 41.1083 45.9087 40.7762V36.1606C45.9087 36.1495 45.9089 36.1382 45.9092 36.127H52.5212C52.5217 36.1382 52.5219 36.1494 52.5219 36.1606Z" fill="#E9F3FE"/>
<path d="M46.1212 38.354C46.121 38.3609 46.1208 38.3678 46.1208 38.3746L46.166 40.9595C46.166 41.4573 46.746 42.0957 47.5102 42.0957H50.9212C51.6853 42.0957 52.2717 41.4799 52.2717 40.9821L52.3105 38.3745C52.3105 38.3677 52.3105 38.3608 52.3101 38.3539C52.3101 38.3539 49.9198 37.7211 48.7748 38.1794C48.1576 38.4265 46.1212 38.354 46.1212 38.354Z" fill="#C65447"/>
<path d="M51.0568 42.2495H47.3228C47.2963 42.2495 47.2708 42.26 47.2521 42.2788C47.2333 42.2975 47.2228 42.323 47.2228 42.3495C47.2228 42.376 47.2333 42.4014 47.2521 42.4202C47.2708 42.4389 47.2963 42.4495 47.3228 42.4495H51.0568C51.0833 42.4495 51.1088 42.4389 51.1275 42.4202C51.1463 42.4014 51.1568 42.376 51.1568 42.3495C51.1568 42.323 51.1463 42.2975 51.1275 42.2788C51.1088 42.26 51.0833 42.2495 51.0568 42.2495Z" fill="#AFCDFB"/>
<path d="M50.9789 41.8956C51.8517 41.4726 52.2871 40.596 51.919 39.6699C51.8829 39.5787 51.84 39.4902 51.7906 39.4054L48.885 41.3406C49.3481 41.9812 50.2249 42.261 50.9789 41.8956Z" fill="#F99746"/>
<path d="M50.9649 41.8637C51.8167 41.4508 52.2418 40.5953 51.8824 39.6914C51.8466 39.601 51.804 39.5134 51.7549 39.4295L48.9186 41.3185C49.3697 41.9462 50.2275 42.2211 50.9649 41.8637Z" fill="#FFA766"/>
<path d="M50.3664 40.5332L51.0204 41.451C51.0318 41.467 51.0395 41.4853 51.0428 41.5047C51.0462 41.524 51.0451 41.5439 51.0397 41.5627C51.0344 41.5816 51.0248 41.599 51.0117 41.6137C50.9987 41.6283 50.9825 41.6399 50.9644 41.6474C50.8432 41.6981 50.7176 41.7379 50.5893 41.7664C50.4482 41.7967 50.3046 41.8146 50.1604 41.82C50.1411 41.8207 50.1219 41.8169 50.1044 41.809C50.0868 41.8012 50.0712 41.7894 50.0589 41.7746C50.0466 41.7598 50.0378 41.7423 50.0333 41.7236C50.0288 41.7049 50.0286 41.6854 50.0328 41.6666L50.2817 40.5504C50.2836 40.5415 50.2882 40.5333 50.2947 40.5269C50.3012 40.5205 50.3094 40.5161 50.3184 40.5143C50.3274 40.5125 50.3367 40.5133 50.3452 40.5166C50.3537 40.52 50.3611 40.5257 50.3664 40.5332Z" fill="#F99746"/>
<path d="M50.498 40.2663L51.5694 39.5528C51.6084 39.6256 51.6432 39.7006 51.6734 39.7775C51.7257 39.9119 51.7662 40.0507 51.7943 40.1922C51.7981 40.2111 51.7975 40.2306 51.7925 40.2492C51.7875 40.2679 51.7784 40.2851 51.7657 40.2996C51.753 40.3141 51.7372 40.3255 51.7194 40.3329C51.7016 40.3404 51.6823 40.3436 51.6631 40.3424L50.5209 40.2737C50.5127 40.2733 50.5049 40.2708 50.498 40.2663Z" fill="#F99746"/>
<path d="M50.4964 40.3835L51.6218 40.4511C51.6414 40.4523 51.6605 40.4579 51.6776 40.4674C51.6947 40.477 51.7095 40.4903 51.7208 40.5063C51.7321 40.5223 51.7397 40.5407 51.7429 40.5601C51.7461 40.5794 51.7449 40.5992 51.7394 40.6181C51.7028 40.7442 51.655 40.8668 51.5966 40.9845C51.5315 41.1133 51.4553 41.2362 51.3689 41.3518C51.3574 41.3672 51.3424 41.3798 51.3253 41.3885C51.3081 41.3973 51.2891 41.402 51.2699 41.4023C51.2506 41.4025 51.2315 41.3984 51.2141 41.3901C51.1967 41.3819 51.1814 41.3697 51.1694 41.3547L50.4565 40.4602C50.4508 40.4531 50.4473 40.4444 50.4464 40.4353C50.4455 40.4262 50.4473 40.417 50.4515 40.4089C50.4557 40.4008 50.4622 40.3941 50.4702 40.3896C50.4781 40.3851 50.4872 40.383 50.4964 40.3835Z" fill="#F99746"/>
<path d="M49.0786 41.2117L50.1664 40.4872C50.1732 40.4932 50.1781 40.5009 50.1806 40.5096C50.183 40.5182 50.1829 40.5274 50.1802 40.536L49.8585 41.6158C49.853 41.6346 49.8432 41.6519 49.83 41.6665C49.8168 41.681 49.8005 41.6924 49.7823 41.6997C49.7642 41.7071 49.7445 41.7103 49.7249 41.709C49.7053 41.7078 49.6863 41.7021 49.6692 41.6925C49.5546 41.6282 49.4459 41.5538 49.3446 41.4701C49.2496 41.3907 49.1607 41.3043 49.0786 41.2117Z" fill="#F99746"/>
<path d="M46.5387 40.5853C47.098 41.1386 47.8865 41.2351 48.4963 40.7039C48.5564 40.6517 48.6125 40.5951 48.6642 40.5344L46.3991 38.8346C46.0335 39.3612 46.0555 40.1073 46.5387 40.5853Z" fill="#F99746"/>
<path d="M46.5593 40.5658C47.1051 41.1058 47.8748 41.2001 48.4699 40.6816C48.5296 40.6299 48.5851 40.5736 48.6361 40.5134L46.4251 38.8542C46.0661 39.3685 46.0869 40.0983 46.5593 40.5658Z" fill="#FFA766"/>
<path d="M47.4167 39.7499L46.8903 40.4975C46.8812 40.5105 46.8692 40.5213 46.8553 40.5291C46.8414 40.5368 46.8259 40.5414 46.81 40.5423C46.7941 40.5433 46.7782 40.5407 46.7635 40.5347C46.7487 40.5286 46.7356 40.5194 46.7249 40.5076C46.6533 40.4286 46.589 40.3433 46.5327 40.2529C46.4714 40.1531 46.419 40.0482 46.376 39.9393C46.3703 39.9248 46.368 39.9092 46.3692 39.8936C46.3705 39.878 46.3753 39.863 46.3834 39.8495C46.3914 39.8361 46.4023 39.8247 46.4154 39.8162C46.4286 39.8077 46.4434 39.8023 46.459 39.8005L47.3807 39.6898C47.388 39.6889 47.3955 39.6902 47.4021 39.6935C47.4088 39.6968 47.4143 39.7019 47.4181 39.7082C47.4219 39.7146 47.4238 39.7219 47.4236 39.7293C47.4233 39.7367 47.4209 39.7439 47.4167 39.7499Z" fill="#F99746"/>
<path d="M47.6564 39.7781L48.4915 40.4049C48.4463 40.4544 48.3983 40.5012 48.3476 40.5451C48.2587 40.6213 48.1634 40.6897 48.0626 40.7493C48.0492 40.7573 48.0341 40.762 48.0185 40.7633C48.0029 40.7645 47.9873 40.7621 47.9727 40.7563C47.9582 40.7505 47.9452 40.7415 47.9347 40.7299C47.9242 40.7183 47.9165 40.7045 47.9122 40.6894L47.6569 39.7975C47.6551 39.7912 47.6549 39.7845 47.6564 39.7781Z" fill="#F99746"/>
<path d="M47.5664 39.8084L47.8183 40.6871C47.8227 40.7024 47.8235 40.7185 47.8209 40.7342C47.8182 40.7499 47.812 40.7647 47.8027 40.7777C47.7935 40.7907 47.7815 40.8014 47.7675 40.8091C47.7536 40.8168 47.7381 40.8212 47.7222 40.8221C47.6157 40.8281 47.5089 40.8246 47.4031 40.8116C47.2869 40.7966 47.1723 40.7715 47.0605 40.7366C47.0456 40.7319 47.0319 40.7239 47.0206 40.7131C47.0093 40.7023 47.0006 40.6891 46.9952 40.6744C46.9898 40.6598 46.9878 40.6441 46.9894 40.6286C46.991 40.613 46.9962 40.5981 47.0045 40.5848L47.4971 39.7985C47.501 39.7923 47.5067 39.7873 47.5134 39.7843C47.5202 39.7812 47.5276 39.7801 47.5349 39.7811C47.5422 39.7822 47.5491 39.7853 47.5547 39.7901C47.5603 39.7949 47.5643 39.8013 47.5664 39.8084Z" fill="#F99746"/>
<path d="M46.5499 38.9477L47.398 39.5841C47.3953 39.5909 47.3907 39.5967 47.3847 39.6009C47.3787 39.6052 47.3717 39.6076 47.3644 39.6079L46.4509 39.653C46.435 39.6538 46.4192 39.6511 46.4045 39.6449C46.3898 39.6387 46.3767 39.6293 46.3662 39.6174C46.3556 39.6055 46.3479 39.5913 46.3436 39.576C46.3393 39.5607 46.3384 39.5446 46.3412 39.5289C46.3595 39.4239 46.3872 39.3208 46.4239 39.2208C46.4591 39.1268 46.5012 39.0355 46.5499 38.9477Z" fill="#F99746"/>
<path d="M48.8538 41.8526C48.4967 42.139 48.0158 41.769 47.8257 41.7101C47.6357 41.6513 47.3739 41.3392 47.3739 41.3392C47.3739 41.3392 47.9824 41.21 48.4235 41.3207C48.5449 41.3475 48.6535 41.4147 48.7317 41.5113C48.8098 41.6079 48.8528 41.7281 48.8535 41.8523L48.8538 41.8526Z" fill="#A8D29F"/>
<path d="M48.8538 41.8529C48.8498 41.8455 48.5982 41.3967 47.3741 41.3393C47.3741 41.3393 47.9826 41.21 48.4238 41.3208C48.5452 41.3476 48.6538 41.4148 48.732 41.5115C48.8101 41.6082 48.853 41.7286 48.8538 41.8529Z" fill="#82B378"/>
<path d="M50.1819 40.8187C50.0218 41.2475 49.4192 41.1756 49.2258 41.2224C49.0323 41.2691 48.6477 41.1348 48.6477 41.1348C48.6477 41.1348 49.1042 40.7125 49.54 40.582C49.658 40.5429 49.7857 40.545 49.9023 40.588C50.0189 40.631 50.1174 40.7123 50.1817 40.8186L50.1819 40.8187Z" fill="#A8D29F"/>
<path d="M50.1817 40.8188C50.1743 40.8144 49.7285 40.5578 48.6477 41.1352C48.6477 41.1352 49.1042 40.7126 49.54 40.5821C49.6579 40.5429 49.7857 40.545 49.9023 40.588C50.0189 40.631 50.1174 40.7124 50.1817 40.8188Z" fill="#82B378"/>
<path opacity="0.4" d="M52.5221 36.1606V40.7762C52.5209 41.1692 52.3641 41.5458 52.086 41.8238C51.8078 42.1017 51.431 42.2583 51.0376 42.2595H49.8126V36.1269H52.5215C52.5219 36.1382 52.5221 36.1494 52.5221 36.1606Z" fill="#AFCDFB"/>
<path opacity="0.5" d="M47.7528 36.127V42.2595H47.3935C47.2753 42.2596 47.1575 42.2454 47.0426 42.2173V36.127H47.7528Z" fill="#F5FAFF"/>
<path d="M43.3681 44.262L42.8651 46.1661L42.8645 46.1667L40.7701 54.0917H40.5498L41.7603 47.5167C41.7615 47.5103 41.7632 47.5038 41.7644 47.4967L42.3631 44.2449L43.3681 44.262Z" fill="#E0E0E0"/>
<path d="M43.3681 44.262L42.865 46.1661L42.8644 46.1667C42.8354 46.1809 41.9196 46.6541 41.7644 47.4967L42.3632 44.2449L43.3681 44.262Z" fill="#828282"/>
<path d="M53.2583 54.0917H53.0381L51.3317 47.6359V47.6347L50.9438 46.1667L50.9432 46.1661L50.4402 44.262L51.4451 44.2449L51.7876 46.1042L52.0439 47.4967C52.045 47.5038 52.0468 47.5103 52.048 47.5167L53.2583 54.0917Z" fill="#E0E0E0"/>
<path d="M51.7875 46.104C51.6021 46.3737 51.3464 46.8805 51.3317 47.6345L50.9438 46.1665L50.9432 46.1659L50.4402 44.262L51.4451 44.2449L51.7875 46.104Z" fill="#828282"/>
<path d="M38.3761 42.4431H54.8565C54.9098 42.4431 54.9626 42.4536 55.0118 42.474C55.0611 42.4943 55.1058 42.5242 55.1435 42.5618C55.1812 42.5995 55.2111 42.6442 55.2315 42.6934C55.2519 42.7426 55.2624 42.7953 55.2624 42.8485V44.0271C55.2624 44.1347 55.2196 44.2378 55.1435 44.3138C55.0675 44.3898 54.9643 44.4326 54.8567 44.4326H38.3761C38.3228 44.4326 38.27 44.4221 38.2208 44.4017C38.1716 44.3813 38.1269 44.3515 38.0892 44.3138C38.0516 44.2762 38.0217 44.2315 38.0013 44.1823C37.9809 44.1331 37.9704 44.0804 37.9705 44.0271V42.8485C37.9705 42.741 38.0132 42.6379 38.0893 42.5619C38.1654 42.4859 38.2686 42.4431 38.3761 42.4431Z" fill="#BDBDBD"/>
<path d="M42.6379 40.4031V41.8181C42.6379 42.1623 42.4554 42.4435 42.2322 42.4435H41.5111C41.288 42.4435 41.1055 42.1623 41.1055 41.8181V40.4031C41.1055 40.1519 41.2032 39.9335 41.3431 39.835C41.4425 39.7647 41.504 39.6073 41.504 39.439V39.2018C41.504 39.0335 41.5936 38.8954 41.7028 38.8954H42.0405C42.1501 38.8954 42.2394 39.0335 42.2394 39.2018V39.4134C42.2394 39.5979 42.3086 39.7627 42.4151 39.846C42.547 39.9491 42.6379 40.1606 42.6379 40.4031Z" fill="#AFCDFB"/>
<path d="M41.5005 38.7157H42.2431C42.2596 38.7157 42.2754 38.7223 42.287 38.7339C42.2986 38.7455 42.3052 38.7613 42.3052 38.7777V39.4537C42.3052 39.4702 42.2986 39.486 42.287 39.4976C42.2753 39.5092 42.2596 39.5158 42.2431 39.5158H41.5006C41.4841 39.5158 41.4683 39.5092 41.4567 39.4976C41.445 39.486 41.4385 39.4702 41.4385 39.4537V38.7777C41.4385 38.7613 41.445 38.7455 41.4566 38.7339C41.4683 38.7223 41.4841 38.7157 41.5005 38.7157V38.7157Z" fill="#F99746"/>
<path d="M42.6378 40.6098H41.1055V41.5765H42.6378V40.6098Z" fill="#F99746"/>
<path opacity="0.2" d="M46.6163 36.1267C46.6163 36.1267 46.3326 35.1253 47.0891 34.8302C48.7338 34.1888 47.701 33.3599 48.8569 32.9723C50.0128 32.5847 51.2845 33.8616 50.4024 34.7446C49.9591 35.1885 52.1679 35.5315 52.2708 36.1269L46.6163 36.1267Z" fill="#F5FAFF"/>
</svg>
